<svg width="204.87" height="215.79" version="1.0" viewBox="0 0 819.5 863.15" xmlns="http://www.w3.org/2000/svg">
 <text transform="scale(1.2134 .82412)" x="1447.8512" y="134.96147" fill="#ffffff" fill-opacity=".82968" font-family="'DejaVu Sans'" font-size="202.86px" stroke-width="5.0715" style="line-height:1.25"><tspan x="327.2619" y="134.96147" fill="#ffffff" fill-opacity=".82968" font-family="Z003" stroke-width="5.0715" text-align="center" text-anchor="middle">PIRAT</tspan></text>
 <text transform="scale(1.1199 .89294)" x="362.60535" y="851.91858" fill="#ffffff" fill-opacity=".82968" font-family="Z003" font-size="75.358px" font-style="italic" stroke-width="4.037" text-anchor="middle" style="line-height:1.15"><tspan x="362.60535" y="851.91858" text-align="center">Professional investigation</tspan><tspan x="362.60535" y="946.70917" text-align="center">reporting and analysis tools</tspan></text>
 <g fill="#fff" stroke="#fff" stroke-width=".1">
  <path d="m365.44 178.73c-1.4 1.3-2.5 3.3-2.5 4.3 0 1.7-4.4 3-34.9 10.7l-34.9 8.7-2.3-2.1c-1.6-1.5-3.6-2.1-6.7-2.1-5.6 0-10.2 4.1-10.2 9.2-0.10001 3.2-0.5 3.6-20.1 15.3-11.1 6.6-20.3 12.4-20.6 12.9-0.4 0.5-0.19999 0.7 0.30001 0.4s10-6 21-12.7l20.1-12.2 0.59999-4.2c0.40001-2.6 1.4-4.8 2.7-5.9 3.1-2.5 9.1-2.3 12.4 0.3l2.7 2.1 35.2-8.8c30.7-7.8 35.2-9.2 35.5-10.9 1.1-6.2 9.7-8.8 14-4.2 3.5 3.8 3 9.2-1.3 13.1l-3.5 3.2v14.7c0 9.1-0.4 14.7-1 14.7-0.60001 0-1-5.6-1-14.8v-14.9l-4.1-3.2c-2.8-2.3-3.6-2.7-2.8-1.3 0.69999 1.1 2.3 2.5 3.6 3.1 2.3 1 2.3 1.3 2.3 16.6 0 14.8 0.1 15.5 2 15.5 1.9 0 2-0.7 2-15.1v-15l3.5-3.3c2.9-2.8 3.5-4 3.5-7.5 0-5.7-3.3-9.1-9-9.1-3 0-4.7 0.6-6.5 2.5z"/>
  <path d="m422.64 192.03-15.7 15.7 31.5 31.5 32-32-15.5-15.5c-8.5-8.5-15.7-15.5-16-15.5s-7.6 7.1-16.3 15.8zm31.8 0.2 15 15-31 31-30.4-30.4 15.1-15.3c8.4-8.4 15.5-15.3 15.8-15.3s7.3 6.8 15.5 15z"/>
  <path d="m427.14 196.53-11.3 11.4 11.2 11.2 11.2 11.3 23.2-23.2-11-11c-6-6-11.2-11-11.5-11s-5.6 5.1-11.8 11.3zm22.8 0.2 10.5 10.5-22 22-21.5-21.5 10.7-10.7c5.9-6 11-10.8 11.3-10.8s5.2 4.7 11 10.5z"/>
  <path d="m346.44 192.53c-6.6 1.7-11.5 3.2-11 3.3 0.6 0.2 6.9-1.2 14-3 7.2-1.9 12.1-3.4 11-3.4-1.1 0-7.4 1.4-14 3.1z"/>
  <path d="m512.44 197.13c-6 2.7-8 8.4-5.3 15.7 1.1 3.2 1.1 3.3-15.1 23.6-12 14.9-16.8 20.2-18.1 20-3-0.5-7.7 2.5-8.7 5.5-1.5 4.5 0.2 8.8 4.2 10.7 3.1 1.5 3.8 1.5 7 0.2 5-2.1 6.5-6.9 4.1-12.6-0.4-1 4.8-8.2 15.4-21.5l16.1-20 5.5 0.3c5.2 0.4 5.7 0.2 8.9-3.2l3.4-3.6h34l1.6 3c0.8 1.6 2.4 3.4 3.5 4 1.8 1 2 2.1 2 14.7 0 11.3-0.3 14-1.7 15.5-0.9 1-1.1 1.8-0.5 1.8 2.4 0 3.2-4.4 3.2-17.4 0-13.1-0.1-13.5-2.5-15.4-1.3-1.1-3-3.1-3.6-4.6l-1.2-2.6h-35.4l-2.6 3c-3.1 3.4-6.3 4.5-11.2 3.7-3.3-0.5-3.5-0.4-19.6 19.6-9 11.1-16.3 20.8-16.2 21.7 0 0.8 0.4 2.9 0.8 4.6 1.5 6.5-7.5 11.4-12.5 6.9-2.7-2.4-2.7-8.6 0-11 1-0.9 3.4-1.8 5.1-2 3-0.2 4.9-2.3 19.6-20.6 14-17.4 16.3-20.8 15.8-22.9-1.8-6.9-1.7-10.5 0.39999-13.2 6-7.6 16.5-4.7 19.5 5.4 0.5 1.6 2.2 1.8 18.2 1.8h17.6l3.5-3c3.9-3.5 7-3.8 10.6-1 2 1.6 2.7 3.1 2.9 6.8l0.3 4.7 18.2 9c10 4.9 18.2 9.6 18.2 10.2 0.1 0.7-0.4 1.3-0.9 1.3-0.6 0-9.5-4.2-19.9-9.4-24.2-12.2-23.1-12.6-23.1 8.5 0 18.7 0.1 18.6-13.5 20.2-2.2 0.3-1.9 0.4 1.3 0.6 5.2 0.1 10.6-2 12.1-4.7 0.7-1.2 1.1-8.1 1.1-16.6 0-12.6 0.2-14.6 1.7-15.5 1.3-0.7 6.3 1.4 21.4 8.9 19.5 9.8 19.6 9.9 20.7 7.6 1-2.2 0.4-2.6-17.9-11.5l-18.9-9.2v-4.4c0-5-2.2-8-6.5-9.1-3.1-0.8-8.2 1.2-9.6 3.7-0.9 1.7-2.4 1.9-18.9 1.9-16.9 0-18-0.1-18-1.9 0-2.7-3.9-7.1-7.6-8.7-4.1-1.7-4.1-1.7-8.9 0.5z"/>
  <path d="m312.64 200.93c-9.8 2.5-17.6 4.7-17.3 5 0.5 0.5 38.6-8.7 38.6-9.3 0-0.8-4.1 0-21.3 4.3z"/>
  <path d="m652.74 202.73c0.9 7.4-0.5 10.2-9.7 19.9-11.7 12.2-12.6 14-12.6 24.6 0 9.8 2.2 15.1 7.9 19.5 3.4 2.6 10.3 5.1 11.3 4.2 0.3-0.3-0.6-2-1.9-3.7-2.6-3.6-3.1-11.3-0.9-16.5l1.2-3 1.7 2.7c2.7 4.5 7.4 6.1 13.5 4.5 2.6-0.7 2.7-0.6 2.7 3 0 2.1-0.9 5.5-2 7.6l-2 3.7h2.2c3.2 0 8.1-3.2 11.2-7.2 7.5-9.9 7.4-20-0.2-32.8l-2.7-4.5-0.5 4.3c-0.8 5.6-4.7 9.7-8.4 8.8-3.4-0.8-3.3-2.4 0.5-9.2 6.2-10.9 3.5-20-8.1-27.7-3.4-2.3-3.7-2.2-3.2 1.8z"/>
  <path d="m180.24 207.73c-7.7 2.1-13 5.1-18.8 10.6-14.2 13.4-17.4 33.2-8.3 51.3 2.8 5.6 11.8 15.6 13.9 15.6 0.59999 0-1.4-2.3-4.5-5.1-17.3-15.8-17.9-43.8-1.2-60.5 12.9-12.8 32.3-15.8 49.1-7.5 7.5 3.7 13.4 9.7 18 18.1 4.2 7.9 4.6 7.2 0.5-1-8.8-17.5-29.5-26.6-48.7-21.5z"/>
  <path d="m293.04 209.23c-0.4 6.5-8.4 10.1-14.1 6.4l-2.5-1.6 2.4 2.1c5.5 4.9 16.1-0.2 14.8-7.1-0.40001-2.2-0.40001-2.2-0.6 0.2z"/>
  <path d="m177.54 214.63c-15.9 6.7-24.3 20-23.4 36.9 0.6 10.2 4.2 18 11.7 25 7.9 7.4 12.6 9.2 24.6 9.2 9.3 0 10.5-0.2 16.7-3.3 7.7-3.8 13.4-9.7 17.5-18.1 2.5-5 2.8-6.7 2.8-15.6-0.10001-12.3-1.9-16.9-10.1-25.5-7.4-7.8-13.1-10.2-24.9-10.7-7.8-0.3-9.8 0-14.9 2.1zm29.6 1.9c6.8 3.3 13.1 10 16.6 17.5 2.3 4.9 2.7 7 2.7 14.7 0 7.8-0.4 9.8-2.9 15.2-3.4 7.3-11.3 15.3-18.3 18.6-7.1 3.2-22.8 3.2-29.5-0.2-7.5-3.7-13.4-9.5-17-16.9-3.1-6.2-3.3-7.4-3.3-16.7 0-8.6 0.4-10.6 2.4-14.5 7.8-14.7 19-21.3 35.2-20.7 6.9 0.2 9.7 0.8 14.1 3z"/>
  <path d="m197.14 243.53c-5.6 5.6-10.2 10.7-10.2 11.2s4.7-3.7 10.5-9.5c10-9.9 10.5-10.3 12.3-8.7 1.8 1.6 1.3 2.2-11.2 14.7l-13.1 13-7.4-7.5c-7.4-7.4-7.5-7.4-5.6-9.5l1.9-2.1 5.3 5.3c2.9 2.9 5.3 4.8 5.3 4.3 0-0.9-10-10.4-11.1-10.5-0.3 0-1.6 1.1-2.8 2.4l-2.2 2.4 16.6 16 8.5-7.8c4.7-4.3 11-10.3 13.9-13.4l5.5-5.6-2.4-2.5c-1.3-1.4-2.6-2.5-2.9-2.5-0.40001 0-5.2 4.6-10.9 10.3z"/>
  <path d="m253.64 227.03-20.9 12.7-0.19999 9c-0.30001 9.7-2.3 16.5-7.1 23.6-1.4 2.1-2.5 4.1-2.5 4.3 0 0.3 3.8 3.5 8.5 7.1 4.7 3.7 8.5 7.4 8.5 8.2 0 1.2-0.70001 1-3.2-0.9-1.8-1.3-6.2-4.5-9.8-7l-6.5-4.6-4.5 3.4c-11.5 8.7-28 10.6-42.5 4.9-1.4-0.6-1.7-0.5-1 0.3 0.60001 0.6 3.9 1.9 7.5 2.8 12 3.1 26.1 0.4 36-6.9l4.5-3.3 9.8 6.9c7.8 5.5 10.1 6.7 10.8 5.6 0.5-0.8 0.9-1.6 0.9-1.9s-4-3.7-9-7.5c-4.9-3.8-9-7.3-9-7.7s0.5-1 1-1.3c1.9-1.2 6.8-12 8-17.8 0.6-3.2 1-8.3 0.79999-11.2l-0.29999-5.3 21-12.7c22.3-13.5 22.3-13.5 20.9-13.5-0.5 0.1-10.3 5.8-21.7 12.8z"/>
  <path d="m332.74 238.83c-15.7 2.4-33.7 9.5-47.3 18.7-8.5 5.7-20.6 17.7-26 25.8-9.7 14.5-14.5 28.5-15.2 44.9l-0.59999 11.5 9.4-9.1c10-9.6 20.2-17.5 31.2-24.3 7.8-4.8 24.7-13.4 25.3-12.9 0.19999 0.2-1.6 2-4 3.9-9.1 7.1-37.1 33.6-43.3 40.8-7.2 8.4-15.3 19.9-13.2 18.5 0.79999-0.4 6.1-3.9 11.9-7.7 12.7-8.3 30.6-17.3 45.5-22.7 6-2.1 11.1-3.8 11.3-3.6 0.1 0.2-4.1 3.1-9.5 6.4-5.4 3.3-13.3 8.5-17.7 11.6-9.1 6.3-24.9 19.6-24.3 20.3 0.90001 0.9 18.5-5.7 36.6-13.6 51.8-22.9 85.5-32.3 138.8-38.7l4.2-0.5-1.5-5.2c-8-27.6-29.5-49-60.4-60.2-15.4-5.5-32.5-6.9-51.2-3.9z"/>
  <path d="m527.94 253.23c-3.6 3.6-4 6.6-4 27.6v20.4l5-0.4v-21c0-18.1 0.2-21.2 1.7-22.8 0.9-1 1.1-1.8 0.5-1.8-2.6 0-3.2 4.5-3.2 23.8 0 17.2-0.2 20.1-1.6 20.6-1.3 0.5-1.5-1.8-1.2-20.8 0.3-19.7 0.5-21.6 2.3-23.6 1.1-1.2 2.9-2.6 4-3.1 1.7-0.6 1.7-0.8 0.3-0.8-1-0.1-2.7 0.8-3.8 1.9z"/>
  <path d="m538.74 254.93c3.4 0.2 9 0.2 12.5 0 3.4-0.2 0.6-0.3-6.3-0.3s-9.7 0.1-6.2 0.3z"/>
  <path d="m92.241 265.73c-5.8 2.5-8 10.2-4.5 15.9l1.7 2.9-10.3 19.9c-9.2 17.6-10.7 19.8-12.9 19.8-3.5 0-6.1 1.6-7.9 5.2-2.2 4.2-1.1 9 2.6 12.2l3 2.5v23.5c0 22.8-0.1 23.5-2.1 24.1-2.8 0.9-5.9 6.3-5.9 10.4 0 2.7 0.9 4.2 4 7.2l4 3.8v40l-2.9 2c-1.6 1.2-3.5 3.7-4.1 5.5-2.4 7.4 2 12.8 10.1 12.5l4.8-0.3 19.9 19.2c11 10.6 20.2 19.2 20.5 19.2 0.5 0-8.8-9.1-31.6-31-8.5-8.1-8.8-8.4-13.2-8.1-5.7 0.3-8.1-1-9.4-5.2-1.4-4.2-0.4-7.2 3.8-11.1l3.1-3v-39.9l-4-3.7c-3-2.8-4-4.5-4-6.8 0-4.4 1.7-7.6 5.1-9.6l2.9-1.7v-47.5l-2.9-2.2c-3.7-2.7-4.7-6.9-2.7-11.6 1.4-3.4 2.4-4 8.1-4.8 1.5-0.2 4.8-5.6 12.6-20.3l10.7-20-1.9-3.1c-2.7-4.5-2.4-8.8 0.90001-12.5 3.9-4.4 9.1-4.3 13.6 0 3.2 3.1 3.5 3.2 10.7 2.8l7.4-0.3-7.6-0.2c-5.6-0.1-7.8-0.6-8.2-1.6-1.5-3.8-8.8-6.1-13.4-4.1z"/>
  <path d="m126.24 271.93c2.6 0.2 6.8 0.2 9.5 0 2.6-0.2 0.4-0.3-4.8-0.3-5.2 0-7.4 0.1-4.7 0.3z"/>
  <path d="m141.94 273.23c1.1 2 0.80001 2-17 2h-18l-1.3 3.2c-1.8 4.4-4.1 6.1-8.8 6.7l-4 0.6-9.5 18.2c-5.2 10.1-9.3 18.3-9 18.3 0.6 0 18.6-34 18.6-35.1 0-0.5 1.4-0.9 3-0.9 4.7 0 8.7-2.5 10.1-6.5l1.3-3.5h18.4c16.4 0 18.3-0.2 17.8-1.6-0.3-0.9-0.60001-2-0.60001-2.5s-0.5-0.9-1-0.9c-0.69999 0-0.69999 0.6 0 2z"/>
  <path d="m553.44 275.63c-3 4.5 1.3 9.8 6.6 8.1 5.5-1.8 3.8-10.5-2.1-10.5-2 0-3.5 0.8-4.5 2.4zm8.4 0.4c1.5 2.7 0.2 6.1-2.5 6.8-3.9 1-6.8-2.4-5.3-6.4 1.1-2.8 6.3-3.1 7.8-0.4z"/>
  <path d="m152.84 303.43c-16.9 20.2-17.3 20.8-16.6 20.8 0.4 0 27.7-32.3 30.5-36.2 0.69999-1 1.1-1.8 0.89999-1.8-0.2 0-6.9 7.8-14.8 17.2z"/>
  <path d="m154.44 307.33c-8.8 10.5-16.1 20-16.2 21.2-0.1 1.8-0.1 1.9 0.4 0.3 0.5-1.7 22.4-28.5 29.6-36.3 1.7-1.8 2.9-3.5 2.6-3.7-0.20001-0.3-7.6 8.1-16.4 18.5z"/>
  <path d="m695.94 292.63c-9.6 1.1-18.2 2.6-19.1 3.1-4.6 2.9-12.4 16.8-16.3 29.2-9.1 29-3.4 64.4 13.4 83.6 6.8 7.7 9.2 8.5 29.7 9.8l17.9 1.2 5.3-2.8c7.3-4 12.6-10.3 17.6-21 5.1-10.8 7.2-18.5 8.6-32.4 1.9-18.2-1.7-37.8-9.8-53.3-4.7-9-9.3-14.1-15.5-17.2s-8-3.1-31.8-0.2zm25.4 11.8c2.5 0.8 5.9 3.1 8.7 5.8 20.6 20.5 19.2 74.1-2.4 91.4-5 4-13.4 4.8-19.3 1.8-20.5-10.5-27.4-55.5-12.7-83.4 5.1-9.7 13-16.2 20.2-16.7 0.7-0.1 3.2 0.5 5.5 1.1z"/>
 </g>
 <ellipse cx="409.75" cy="416.45" rx="407.08" ry="274.42" fill="#d3d3a1" fill-opacity=".13058" stroke="#fff" stroke-dashoffset="53.32" stroke-width="5.332"/>
 <g fill="#fff" stroke="#fff" stroke-width=".1">
  <path d="m710.24 316.13c-6.3 4-11.2 17.4-11.7 32.6-0.2 5.5-0.2 8 0 5.5 1-11.6 2.5-20.2 4.4-25.4 7.3-19.5 19.9-16.7 26.1 5.9 1.9 7 2.1 9.7 1.7 22.5-0.6 16.6-2.7 24-8.4 29.7-9.1 9.2-18.6-0.8-22.7-23.7-0.3-1.4-0.3-0.3-0.1 2.4 0.6 7.9 4.2 17.3 8.3 21.7 3.2 3.3 4.4 3.9 7.9 3.9 3.4 0 4.7-0.6 7.6-3.6 5.7-5.9 7.8-13.5 8.3-30.5 0.6-16.2-0.6-23.2-5.5-32.8-4.4-8.7-10.2-11.7-15.9-8.2z"/>
  <path d="m652.94 308.03c-1.4 0.2-26.5 3.2-55.8 6.6l-53.3 6.2-3.5 5.2c-6.4 9.5-8.6 16.5-9.2 28.3-0.4 9.1-0.1 11.7 1.9 18.4 2.2 7.4 8.9 19.5 10.7 19.5 1.1 0 6.7-14.5 8.3-21.5 1.6-6.6 4.4-12.1 7.2-14 7.8-5.1 14.8-4 23.2 3.6 5.9 5.5 9 11.5 10 20l0.7 5.6 8.1 0.3c4.5 0.1 17.5 0.7 28.9 1.3 18.4 1.1 20.7 1 20.3-0.3-3.6-11.9-4-15-3.9-33 0.1-19.8 1.2-26.3 6.8-40.2 1.4-3.4 2.4-6.2 2.3-6.3-0.1 0-1.3 0.1-2.7 0.3z"/>
  <path d="m429.44 319.93c-29.5 4-60.5 11.9-91 23.1l-8 3-1.3 7.3c-1.8 9.9-1 32.5 1.3 39.9 2.9 9.2 13.3 32.8 16.5 37.5 3.3 4.9 7.4 7.5 11.5 7.5 4.1 0 9.5-3.3 18-11 4.4-4 12.3-10.4 17.7-14.3 7.3-5.3 9.8-7.7 9.8-9.3 0-1.4 1.5-3.4 4-5.4 4-3.1 4.2-3.2 5.6-1.4 0.79999 1.1 2.1 3.3 2.9 5 1.8 4 5.9 5.7 19.6 8 12.2 2.1 15.9 1.3 17.9-3.7 1.1-2.7 0.89999-4-2.6-12.9l-3.9-10h-4.3c-2.4 0-5.5-0.6-7-1.4-3.6-1.9-8.5-7.2-10.7-11.6-2.6-5.1-3.1-14.7-1.1-20.8 2-5.9 8.5-13 12.8-13.9 2.7-0.5 2.9-0.8 2.3-4.7-1.6-10.1-2-11.1-4.5-11.2-1.4-0.1-3.8 0-5.5 0.3zm-16.9 28.4c-1.1 11.9-3.1 17.7-8 22.6-4.6 4.6-7.9 5.8-12.9 4.9-6.5-1.2-13.9-9.9-16.1-18.9-0.6-2.5-1-2.7-6.2-2.7-5.9 0-14.4-1.8-14.4-3 0-0.4 5.3-3 11.8-5.8l11.7-5.1h17.4l17.4-0.1z"/>
  <path d="m121.94 322.93c-7.6 4-7.5 15.7 0.20001 19.8l3.8 2v44.4l-3.4 1.6c-3.1 1.5-4.6 3.4-6 7.7-0.5 1.6-2.6 1.8-20.6 2.1l-20 0.3 20.2-0.1h20.2l2-3.9c1.2-2.2 3.5-4.7 5.1-5.6l3-1.7 0.30001-22.6 0.19999-22.6-2.7-1.5c-4.7-2.4-6.6-5.2-6.7-10.1-0.10001-6.2 3.5-9.9 9.6-9.9 2.4 0 5.2 0.4 6.3 0.8 1.6 0.7 1.7 0.6 0.9-0.3-2-2.2-8.6-2.4-12.4-0.4z"/>
  <path d="m72.341 324.73c-0.3 0.8 0.1 2.4 1 3.7 2.6 3.6 2 8.5-1.3 11.9-1.6 1.6-2.6 2.9-2.1 2.9 0.4 0 2-1.4 3.4-3.1 3-3.5 3.4-8.3 1-11.7-0.9-1.3-1.3-2.9-1-3.7s0.3-1.5 0-1.5c-0.2 0-0.7 0.7-1 1.5z"/>
  <path d="m194.24 325.23c-1.2 0.5-2.8 1.8-3.5 3-1.2 1.9-2.3 2-26.3 2.2l-25 0.3 24.9 0.2 25 0.3 2.1-2.6c2.4-3 7.2-3.7 9.9-1.4 2.1 1.6 2 7.4 0 9.4-2.3 2.4-6.7 2-9.4-0.9l-2.4-2.5-25 0.2-24.9 0.3-1.7 3c-0.89999 1.6-3.3 4.1-5.3 5.4l-3.7 2.4 0.20001 22.6 0.29999 22.6 0.20001-22.6 0.29999-22.5 3.6-1.7c2.3-1.1 4-3 5-5.2l1.4-3.5h49.3l2.3 2.5c2.7 2.9 6.8 3.3 10.2 0.9 3.3-2.3 3.1-8.6-0.4-11.3-2.9-2.3-3.8-2.4-7.1-1.1z"/>
  <path d="m525.44 328.83c-1.8 0.6-38 4.4-41.8 4.4-3.2 0-4.1 0.6-6.7 4.2-8.5 11.8-7.8 31.4 1.6 41.8l3.3 3.7 22.3 1c12.3 0.6 22.4 1 22.5 0.9s-1-3.1-2.5-6.6c-2.5-6.1-2.7-7.4-2.7-21 0.1-13.3 0.3-15.1 2.7-21.5 2.9-7.3 2.9-7.4 1.3-6.9z"/>
  <path d="m450.94 341.73c-5.8 0.7-11.3 1.6-12.2 2-4.9 2-8.3 14.6-5.9 21.7 0.60001 1.9 2.5 4.8 4.2 6.4 3 2.9 3.2 2.9 15.9 3.2l13 0.4-1.6-4.4c-2.5-6.9-2.9-16.4-1-23.6 0.90001-3.5 1.6-6.6 1.6-6.8 0-0.5-1.3-0.4-14 1.1z"/>
  <path d="m67.141 367.43c-0.2 23.5-0.2 23.7 2 25.2 1.2 0.9 3.1 3.1 4.1 4.9 1.4 2.6 1.7 2.8 1.2 0.7-0.4-1.4-2-3.7-3.6-5.1l-2.9-2.5-0.3-23.5-0.2-23.4z"/>
  <path d="m231.94 353.13c-0.8 0.5-5.3 1.1-10 1.5-12.2 0.9-18.1 4.1-31.9 17-6.2 5.8-13.2 11.7-15.6 13.3-2.5 1.5-4.5 3.1-4.5 3.5 0 1.5 13.4 7 19.4 8 12.7 2.1 30.6-4 39.8-13.4 2.7-2.7 5.2-5.7 5.8-6.7 0.79999-1.6 0.5-1.8-4.3-1.3-2.9 0.2-9 1.5-13.6 2.9-4.6 1.3-8.6 2.2-8.8 1.9-0.2-0.2 1.6-1.3 4-2.5 2.5-1.2 7.6-4.8 11.3-7.9 6.1-5.1 6.9-6.2 7.2-9.7 0.20001-2.2 1.1-4.8 1.9-5.8 1.8-1.9 1.6-2.1-0.7-0.8z"/>
  <path d="m277.34 364.63c-6.4 2.8-11.4 11.9-11.4 20.9 0 8.9 6.2 19.6 14.3 24.6 4.1 2.5 14.3 5.2 17.1 4.5 2-0.5 2.1-1 1.8-8.9-0.30001-8.3-0.40001-8.5-2.8-8.5-3.8 0-8.3-2.7-10.4-6.3-2.6-4.2-2.7-11.8-0.20001-14 2.3-2.1 8.7-2.2 12.5-0.3 1.5 0.8 2.7 1.3 2.7 1 0-1.4-3.2-6.2-5.7-8.5-6-5.7-11.8-7.1-17.9-4.5z"/>
  <path d="m564.84 364.43c-0.9 0.7-2.6 5-3.7 9.6-1.2 4.6-4.3 13.6-6.8 20-7.6 19.2-7.2 30.5 1.8 44.3 4.7 7.4 10.9 13.6 18.2 18.5 3.1 2 5.5 3.8 5.3 4s-3.4-0.1-7.1-0.7c-5.3-0.9-7-0.8-7.6 0.1-0.5 0.7-5.4 14.5-11 30.7l-10.2 29.4 2.3 2.6c3.7 3.9 13.5 10.3 19.9 12.9 13.5 5.5 36.3 9.1 49.1 7.7l5.9-0.6v-80.9l-2.7 0.7c-2.3 0.5-1.7-0.4 4-6.4 7.5-8 12.9-17.8 15.2-27.3 2-8.7 2-12.8-0.2-12.8-1 0-9.8-0.5-19.6-1.1-9.8-0.7-18-1-18.2-0.7-0.2 0.2 0.4 2.8 1.5 5.6 1.2 3.2 2 7.6 2 11.5v6.2l-3.2-6.3c-3.8-7.7-13.7-18.6-20.5-22.7l-5-2.9 2.8-4.4c4.5-7.1 6-17.5 3.8-25.6-2.2-7.9-11.9-14.8-16-11.4z"/>
  <path d="m774.54 389.33c-1.7 1.9-2.6 4.3-2.6 6.4 0 3.3 4 9.5 6.2 9.5 0.6 0-0.4-1.4-2.2-3-2.9-2.8-3.2-3.5-2.7-7.3 0.7-5.2 3.6-7.7 8.7-7.7 8.2 0 10.8 10.4 4.1 16l-3.1 2.5v19.8c0 15.8-0.3 20.4-1.5 22.7-0.9 1.7-1.7 3.1-1.8 3.2s-10.3 0.5-22.7 0.8l-22.5 0.5-1.3 2.8c-1.7 3.4-6.9 5.9-10.9 5.1-2.5-0.5-4.2 0.9-18.3 15.3-8.5 8.7-19.2 19.7-23.8 24.4l-8.2 8.7v27.1l4.5 4.6 4.6 4.5h14.7c10.3 0 15.3-0.4 16.5-1.3 1.3-1 1.6-3.8 1.9-17.4 0.3-15 0.5-16.4 2.4-18.4 1.3-1.3 3.5-2.1 5.8-2.2 2-0.1 3.2-0.5 2.7-1s-2.6-0.4-5 0.3c-6.3 1.7-7.1 4.1-7.1 21.8 0 10.2-0.4 15.2-1.2 16s-5.9 1.2-16.3 1.2h-15.2l-1.1-2.5c-0.7-1.4-2.3-3-3.7-3.7-2.5-1.1-2.5-1.2-2.5-14.9v-13.8l23.1-23.8 23-23.8 5-0.1c5.3-0.1 8.4-2.1 10-6.2 0.8-2.2 1-2.2 22.3-2.2s21.5 0 24.3-2.4l2.8-2.4 0.6-42.4 3.5-3.3c4.3-4.1 4.6-8.9 0.8-13.4-2.1-2.6-3.3-3.1-6.9-3.1s-4.8 0.5-6.9 3.1z"/>
  <path d="m243.44 393.33c-2.8 2.3-8.1 6.3-12 8.9-12.5 8.4-16.9 12.5-20.7 19-4.2 7.1-7.5 19.7-8.5 31.9l-0.60001 8 7.4-1.9c16.6-4.3 30.7-12.1 38.2-21.3 4.8-5.9 9.4-15.6 10.2-21.8 0.7-5.1-0.20001-14.9-1.3-14.9-0.40001 0-1.5 2-2.5 4.5-2.5 6-12.9 17-22.1 23.3-8 5.6-10.6 6.8-5.7 2.7 7.9-6.7 18.9-25.3 21.5-36.5 0.80001-3.3 1.3-6 1.2-6s-2.4 1.9-5.1 4.1z"/>
  <path d="m133.64 392.23c8.2 5 4.4 19-5.2 19-4.7 0-7.9-1.6-9.9-5.1l-1.7-2.9h-41.2l-4.4 4.7-4.3 4.8 0.4 41 0.6-20.6 0.5-20.5 7.2-8.4h20.6c19.9 0 20.6 0.1 21.2 2.1 1.6 4.9 10.7 7.4 16.3 4.5 6.2-3.2 7.5-12.5 2.6-17.7-1.5-1.6-3.5-2.9-4.3-2.9-0.9 0-0.20001 0.9 1.6 2z"/>
  <path d="m778.94 426.43c0 17.6-0.2 19.6-1.8 21.1s-4.6 1.7-21.6 1.7h-19.7l-3.3-3.4c-3.9-4.2-7.6-5.3-11.7-3.6-4.9 2.1-7.8 10.7-4.7 13.8 1 1-2.8 5.3-17.8 20.5-10.4 10.5-20.2 20.8-21.8 22.7s7.1-6.6 19.2-19c15.3-15.6 22-23 21.5-24-1.6-3.9-1.4-7.6 0.6-10.2 4-5.1 11.6-4.3 15.5 1.6l1.6 2.6h20.5c19.2 0 20.6-0.1 22.5-2 1.1-1.1 2-2.8 2.1-3.8 0.3-6-0.2-36.7-0.6-37.1-0.3-0.2-0.5 8.3-0.5 19.1z"/>
  <path d="m488.04 422.83c-1.2 1.5-2.1 3.4-2.1 4.4 0 3.1 3.8 6.9 7.4 7.2 2.9 0.3 4.5 1.9 16.4 17.8 7.3 9.6 13.2 18.3 13.2 19.2 0 1-5.2 7-11.5 13.3l-11.4 11.5h-9.1c-8.9 0-9 0-9 2.5s0 2.5 9.8 2.5h9.8l12.6-12.8c12.7-12.8 14.6-16 12.9-20.4-0.5-1.3-6.8-10-14-19.3-11.9-15.6-13-17.3-12.4-20.3 0.8-5-1.8-8.2-6.7-8.2-3 0-4.3 0.6-5.9 2.6zm10.4 0.1c1.2 1.2 1.5 2.6 1.1 5.2-0.5 3.3 0.29999 4.6 12.7 21 7.2 9.6 13.5 18.4 13.9 19.4 1.6 3.9-0.7 7.4-12.5 19.4l-12.1 12.3h-9.3c-7.6 0-9.3-0.3-9.3-1.5s1.6-1.5 8.8-1.5h8.8l11.8-12c9.6-9.6 11.8-12.4 11.4-14.2-0.2-1.3-6.4-10.3-13.8-20.1-10.8-14.3-13.8-17.7-15.7-17.7-5.7 0-8.8-5.1-5.8-9.6 1.9-2.9 7.5-3.3 10-0.7z"/>
  <path d="m277.54 433.93c-0.30001 7-1.3 16.8-2.1 21.8l-1.4 9 6.6 9.8c12.1 18.1 33.6 38.5 53.5 50.9l9.1 5.6 3.3-13c1.8-7.2 3.5-13.3 3.8-13.6 0.30001-0.2-5-4.6-11.7-9.5-16.6-12.4-34.2-30.1-38.4-38.7-3-6.1-8.3-24.6-8.3-28.7 0-1.8-3.9-3.6-12.6-6.1-0.69999-0.2-1.3 4-1.8 12.5z"/>
  <path d="m435.44 425.23c-1.6 1-7.4 3-12.7 4.4-11.1 2.9-15.7 5-21.7 10l-4.3 3.6h15.2c21.9 0 25.3-1.2 27.8-10.1 0.9-3.5 0.5-10-0.7-9.8-0.3 0-1.9 0.9-3.6 1.9z"/>
  <path d="m156.14 427.93c-2.5 1-3.4 5.3-1.7 7.9 3.2 4.9 11.1 1.7 9.8-3.9-0.90001-3.8-4.4-5.5-8.1-4zm6.5 3.2c1.6 3.4 0 6.1-3.7 6.1-4.1 0-5.8-3.2-3.5-6.6 2-3.1 5.5-2.9 7.2 0.5z"/>
  <path d="m101.04 439.43-0.10001 2.8h18.5l18.7 19c10.3 10.5 19.7 19.4 21 19.8 4.9 1.9 8.4-0.4 19.3-12.5 9.4-10.6 10.3-11.9 8.9-13.3-1.6-1.6-2.6-0.8-17.6 15.8-3.1 3.4-6.4 6.2-7.4 6.2s-10.6-8.8-21.6-19.8l-19.9-19.7-8.7-0.1c-4.8-0.1-6.2 0.1-3.2 0.2 12.2 0.8 11 0 32.2 21.1 17.4 17.3 19.9 19.5 22.1 18.9 1.5-0.3 6.5-5.1 12.3-11.6 6.4-7.3 10.1-10.7 10.7-10.1 1 1-3.4 6.5-15 18.8-4.6 5-6.6 5.9-11.3 5.3-0.79999-0.1-10.3-8.9-21.1-19.6l-19.5-19.4h-8.6c-8.2 0-8.7-0.1-9.1-2.3-0.4-1.9-0.4-1.8-0.6 0.5z"/>
  <path d="m665.94 450.53c-4.9 2.5-6 8.8-2.3 12.9 0.9 1 2.2 1.8 3 1.8 1.1 0 1.3 6.4 1.3 35.5v35.5l-3.2 2.9c-2.8 2.5-3.3 3.6-3.3 7.6 0 4.1 0.4 5.1 3.3 7.4l3.2 2.7v13.5c0 9.2-0.4 13.9-1.2 14.7s-4.8 1.2-11.4 1.2c-10.1 0-10.2 0-10.6 2.5l-0.5 2.5h11.4c11.3 0 11.5 0 14.4-2.9l2.9-2.9v-27.9l7.8-8.2 32.4-0.6 2.4-2.8c2.3-2.7 2.4-3.4 2.4-18.6 0-10.9 0.4-16.1 1.2-16.9s5.4-1.2 13.9-1.2c12.1 0 12.8 0.1 13.4 2.1 0.4 1.1 2.2 2.7 4.1 3.5 2.9 1.2 3.9 1.2 6.8 0 4-1.7 5.6-4.2 5.6-8.8-0.1-5.2-4-8.8-9.5-8.8-2.8 0-8.5 4.8-8.5 7.2 0.1 0.7 0.7 0.1 1.6-1.4 4.2-7.8 15.4-5.5 15.4 3.1 0 7.9-9 11.3-14 5.3l-2.6-3.2h-12.6c-16.6 0-15.8-1-15.8 19.2 0 21.4 1.2 20.2-20.9 20.6-15.7 0.3-17.1 0.5-17.6 2.2-0.3 1.1-1.8 2.9-3.3 4.1-2.7 2-2.7 2.2-3.2 17.1-0.6 19-0.4 18.8-15.6 18.8-8.3 0-10.4-0.3-10.4-1.4s1.9-1.4 9.5-1.4c13.6 0.1 13.5 0.2 13.5-17.3 0-13.5-0.1-13.9-2.4-15.4-5.5-3.6-5.7-11.9-0.5-15.7l2.9-2.2v-71.6l-2.5-1c-5.2-2-5.4-10.2-0.4-12.8 7.7-4 14.6 6.2 8.4 12.4-2.5 2.5-2.5 2.5-2.3 20.2l0.2 17.7 0.3-17.4c0.3-16.8 0.4-17.5 2.8-20.3 3.1-3.7 3.2-7.9 0.3-11.2-2.8-3.1-6.5-4-9.8-2.3z"/>
  <path d="m70.941 456.93c3 2.5 3.2 3 2.8 7.5l-0.5 4.8 9.6 9.3c19.9 19.2 36.8 35.2 51.2 48.6l5.7 5.2-2 3.7c-3.5 6.7-0.80001 15 6 18.2l3.2 1.5v24.1c0 22.8-0.1 24.2-2 25.9-1.5 1.4-2 3.1-2 7.2v5.3h12v-5.3c0-5.1-1.2-7.7-3.4-7.7-0.60001 0-0.3 0.5 0.7 1.1 1.2 0.7 1.7 2.3 1.7 5.9v5h-10v-4.8c0-3.6 0.5-5.4 2-6.7 1.9-1.7 2-3.1 2-26.2 0-15.2 0.4-24.3 1-24.3 0.60001 0 1.1 9.4 1.3 24.7l0.19999 24.8 0.30001-24.6 0.19999-24.5 3.3-1.6c4.3-2.1 7.1-7.7 6.4-12.9l-0.5-3.8 10.7-6.9c13.9-9.1 27.4-16.1 43.2-22.5l3.7-1.5-1.5-4.5c-1.8-5.4-0.79999-5.6-20.1 3.8-14.2 6.9-24 12.9-34 20.7-6.2 4.8-6.3 4.9-10.2 3.7-3.3-1-4.7-0.9-7.8 0.3l-3.8 1.5-17-16.1c-48.4-45.6-49.3-46.5-48.5-49.4 1-3.7-0.5-8.8-3.1-10.7-3.7-2.5-4.2-1.7-0.8 1.2z"/>
  <path d="m451.14 463.93c4.8 9.8 5.2 11.1 5.6 20.4 0.5 10.4-1.5 20.7-5.9 30.4l-2.2 5-1.4-5.8c-2.2-10-3.2-10.2-3.3-0.7 0 11.6-2.9 21.7-7.9 27.4-1.6 1.8-1.5 1.8 2.2 0.2 8.4-3.5 15.2-10.8 21.2-22.6 4.8-9.5 6.5-16.2 6.5-25.6 0-10-2.3-17.1-7.6-23.2-3.2-3.8-8.2-7.6-7.2-5.5z"/>
  <path d="m249.14 470.83c-8 6.4-20.2 19.4-20.2 21.5 0 0.6 1.1 4.5 2.6 8.7 6.1 18.1 20.9 43.3 36.1 61.2 8.3 9.8 14.1 15.7 14.6 14.9 7.8-11.5 24.8-29.5 31-32.8 2.3-1.2 2.9-1 7.8 2.6 3 2.2 11.5 8.3 19.1 13.6 11.6 8.2 21.3 15.7 37.1 28.7l3 2.4 7.4-7.8c7.6-8.1 21.2-27.5 26.3-37.7l3-5.9-3.6-1.5c-2-0.8-4-1.5-4.3-1.5-0.4 0-2.9-1.4-5.5-3.1-3.8-2.4-4.7-2.6-4.1-1.2 3.5 8.6 2.3 15.7-4.6 27.3-5 8.4-13.9 20.9-14.9 21-0.4 0-3.2-3.2-6.5-7-8.4-10.2-22.2-21.8-39.7-33.7-8.4-5.7-19.8-13.9-25.4-18.3-18-14.3-38.3-36.9-46.7-52.2-1.8-3.2-3.4-5.8-3.7-5.8-0.3 0-4.3 3-8.8 6.6z"/>
  <path d="m107.94 476.23v5h10v-10h-10zm9 0v4h-8v-8h8z"/>
  <path d="m727.44 505.23c-0.3 0.5-0.1 1 0.4 1 0.6 0 1.1-0.5 1.1-1 0-0.6-0.2-1-0.4-1-0.3 0-0.8 0.4-1.1 1z"/>
  <path d="m733.24 505.93c2 0.2 5.4 0.2 7.5 0 2-0.2 0.3-0.4-3.8-0.4s-5.8 0.2-3.7 0.4z"/>
  <path d="m76.741 509.33c-2.8 1.6-2.3 6.7 0.6 8 1.6 0.8 3 0.8 4.1 0.1 1.1-0.5 8.9-0.7 19.4-0.5l17.6 0.5 5.5 5.2c3 2.8 7.3 6.7 9.5 8.6l4 3.5-3-3.3c-1.7-1.9-6-6-9.6-9.3l-6.7-5.9-17.1-0.5c-11.4-0.3-18-0.1-19.6 0.7-4.3 2-7.6-3.2-4-6.2 1.3-1.1 2.1-0.9 4.5 0.9 2.8 2 3.9 2.1 16.2 1.8l13.3-0.3-13.5-0.2c-12.2-0.2-13.7-0.4-15.3-2.2-1.9-2.2-3.3-2.4-5.9-0.9z"/>
  <path d="m536.44 540.63c-1.6 4.4-5.2 14.5-8 22.3l-5.2 14.3 4.6 4.3c10.9 10.1 26.9 19.3 41.7 24 16 5.1 30.6 5.6 44.8 1.8l6.1-1.6 0.3-25.3 0.2-25.2h-12.9c-25 0-48.9-7.1-63.7-18.8l-5-3.9z"/>
  <path d="m467.54 536.33c-1.6 2.8-1.6 2.8 1.1 4.2 5.8 3 43.9 13.5 45 12.4 0.8-0.9-18.2-9.7-31.3-14.5l-13.1-4.9z"/>
  <path d="m216.74 548.43c-1.5 0.5-3 1.8-3.3 2.9-0.5 1.5-1.6 1.9-5.5 1.9-6.3 0-7.8 0.6-9.5 4.1-2.4 4.6-1.9 9.4 1.4 13.1 2.9 3.2 3.1 3.3 12.5 3.6 9 0.4 9.7 0.6 11.7 3 1.4 1.8 1.8 3.4 1.4 5.2-1.2 4.5-2.2 5-11.7 5-7.5 0-9.3-0.3-11.7-2.1-5.8-4.3-12.5 1.7-9 7.9 1.9 3.6 7 4.2 9.6 1.3 1.5-1.8 2.9-2.1 9.9-2.1 4.4 0 9.5-0.5 11.3-1.1 3.8-1.3 6.1-5.4 6.1-10.6 0-7.7-5.4-11.3-16.7-11.3-8.4 0-11.3-1.6-11.3-6.4 0-1.7 0.5-3.7 1.2-4.4 1.9-1.9 8.7-1.4 11.5 0.8 1.4 1.1 3.6 2 4.9 2 5.3 0 8.5-7.8 4.7-11.2-2.6-2.2-4.5-2.6-7.5-1.6zm7 2c1.7 1.7 1.5 6.4-0.4 8.2-2.1 2.2-5.6 2-8.4-0.4-2.9-2.5-9.6-2.7-12.2-0.3-2.4 2.2-2.4 7.7 0.19999 10.3 1.6 1.6 3.4 2 9.3 2.1 12.5 0.1 16.7 2.8 16.7 11.1 0 2.5-0.8 4.6-2.4 6.5-2.3 2.7-2.9 2.8-12.4 3.1-8.4 0.3-10.3 0.7-11.8 2.3-0.90001 1-2.7 1.9-4 1.9-5.6 0-7.2-7.2-2.2-9.9 2.5-1.4 2.9-1.4 5.7 0.7 2.6 1.9 4.3 2.2 11.9 2.2 7.2 0 9.2-0.3 10.4-1.8 2.6-2.9 3-5.9 1.3-9.1-1.8-3.5-2.9-3.9-14.4-4.4-7.7-0.4-8.6-0.6-10.8-3.1-3-3.5-3.1-9.3-0.2-13 1.7-2.2 2.8-2.6 7.4-2.6 4.5 0 5.5-0.4 6.9-2.5 1.8-2.8 7.2-3.5 9.4-1.3z"/>
  <path d="m91.941 557.43v4.8h10l-0.19999-5.3-0.2-5.2-0.3 4.7-0.40001 4.8h-4c-3.8 0-3.9-0.1-3.9-3.4s0.20001-3.5 3.8-3.8l3.7-0.3-4.2-0.5-4.3-0.6z"/>
  <path d="m430.44 575.83c-1.4 1.5-2.5 3.7-2.5 5 0 2.6 2 7.4 3 7.4 0.39999 0-2.8 6.9-7 15.2l-7.7 15.3-23.2 0.3c-22.7 0.2-23.3 0.2-25-1.9-1-1.2-3-2.2-4.8-2.3-2.6-0.1-5.8-2.5-16.8-12.9-7.5-7-14.7-13-16.1-13.3-4.6-1.2-7.7 0.7-18.6 11.3-10.7 10.5-10.9 10.7-15.2 10.4-3.7-0.2-4.7 0.2-6.5 2.5-2.7 3.4-2.7 6.7 0.19999 9.8 5 5.6 13.7 2.6 13.7-4.7 0-2.9 1.4-4.7 11.4-14.6 6.3-6.1 11-11.1 10.6-10.9-0.4 0.2-5.7 5.1-11.9 10.9-10 9.6-11.1 11-11.1 14.1 0 4.7-2.7 7-7.6 6.6-3.1-0.2-4.2-0.9-5.2-3.1-2.8-5.8 1.9-10.9 8.5-9.2 2.4 0.6 3.8-0.5 13.8-10.5 8.9-8.9 11.8-11.2 14.6-11.6 4-0.7 5.1 0.1 23.7 17.7 7.7 7.3 9.8 8.7 12.4 8.7 2-0.1 3.6 0.6 4.7 2 1.6 2.2 2.2 2.2 24.5 2.2 16.7 0.1 23.2-0.3 24.3-1.2 0.8-0.7 4.8-7.8 8.8-15.8 7.2-14.5 7.2-14.6 5.4-16.9-2.6-3.2-2.4-6.7 0.60001-9.6 3.3-3.4 7.7-3.3 10.4 0.1 1.2 1.5 2.1 3.7 2.1 4.9 0 2.9-3.6 7.5-6 7.5-2.4 0-2.9 0.7-11 16.5-4 7.7-8.1 14.8-9.2 15.7-1.8 1.6-4.5 1.8-24.7 1.8h-22.8l-2.3 2.5c-4.5 4.8-10.5 2.4-10.3-4.2 0.19999-3.9-0.2-4.3-13.3-16.4-7.5-6.8-14.1-12.6-14.7-12.8-0.7-0.2-1-0.2-0.7 0.1 0.29999 0.3 6.6 6.1 14 12.9 12.8 11.8 13.5 12.6 13.5 16.2 0 7 7.3 10.2 11.9 5.2l2.3-2.5h22.1c14.8 0 23-0.4 24.7-1.2 1.9-0.8 4.6-5.1 10.5-16.8 7.2-14.3 8.2-15.8 11-16.3 3.7-0.8 6.6-6.1 5.6-10.1-1.7-6.8-9.5-8.9-14.1-4z"/>
  <path d="m471.94 577.13c-1.4 2.6-1.3 7.4 0.2 8.9 0.69999 0.7 3.1 1.2 5.4 1.2 4.4 0 5.4-1 5.4-5.6s-1.7-6.4-6-6.4c-2.9 0-4.2 0.5-5 1.9zm8.9 0.5c0.70001 0.8 1.1 3 0.90001 4.8-0.3 3.1-0.6 3.3-4.2 3.6-2.4 0.2-4.2-0.2-4.7-1-1.3-1.9-1.1-6.2 0.30001-7.6 1.6-1.6 6.3-1.5 7.7 0.2z"/>
  <path d="m251.64 599.03c-3.3 3.6-0.80001 9.2 4 9.2 2.5 0 5.3-3 5.3-5.7 0-4.6-6.2-6.9-9.3-3.5zm6.4 0.2c3.7 2 1.8 8-2.6 8-4.3 0-6.3-5.8-2.7-7.9 2.2-1.3 2.9-1.3 5.3-0.1z"/>
  <path d="m459.94 601.23c-1.1 1.1-2 2.9-2 4 0 2.4 3.4 6 5.5 6 2.8 0 6.7-4.8 6-7.3-1.5-4.7-6.1-6.1-9.5-2.7zm6.2 0.2c2.9 2.2 2.7 6.2-0.30001 7.8-1.6 0.9-2.6 0.8-4.5-0.5-2.8-1.8-3.1-4.6-0.79999-6.9 1.9-1.9 3.5-2 5.6-0.4z"/>
  <path d="m491.34 602.73c-1.9 2.8-1.1 6 1.8 7.6 5.1 2.7 10.5-2.9 7.3-7.7-2.1-3.3-6.9-3.3-9.1 0.1zm8.6 0.6c2.1 3.9-3 8.6-6.6 6.1-1.8-1.2-2.4-4.2-1.4-6.3 1.5-2.7 6.6-2.6 8 0.2z"/>
 </g>
</svg>
