<?xml version="1.0" encoding="UTF-8" standalone="no"?>
<svg
   version="1.0"
   width="204.87444"
   height="215.78809"
   viewBox="0 0 819.49774 863.15234"
   id="svg124"
   xmlns="http://www.w3.org/2000/svg"
   xmlns:svg="http://www.w3.org/2000/svg">
  <defs
     id="defs72" />
  <g
     transform="matrix(0.1,0,0,-0.1,-96.371139,1049.6204)"
     fill="none"
     stroke="#000000"
     stroke-width="48"
     stroke-linecap="round"
     id="g122" />
  <text
     style="font-style:normal;font-variant:normal;font-weight:normal;font-stretch:normal;font-size:202.858px;line-height:1.25;font-family:'DejaVu Sans';-inkscape-font-specification:'DejaVu Sans';fill:#ffffff;fill-opacity:0.829681;stroke:none;stroke-width:5.07146"
     x="1447.8512"
     y="134.96147"
     id="text342"
     transform="scale(1.2134135,0.82412139)"><tspan
       id="tspan340"
       style="font-style:normal;font-variant:normal;font-weight:normal;font-stretch:normal;font-family:Z003;-inkscape-font-specification:Z003;text-align:center;text-anchor:middle;fill:#ffffff;fill-opacity:0.829681;stroke-width:5.07146"
       x="327.2619"
       y="134.96147">PIRAT</tspan></text>
  <text
     style="font-style:italic;font-variant:normal;font-weight:normal;font-stretch:normal;font-size:75.3577px;line-height:1.15;font-family:sans-serif;-inkscape-font-specification:'sans-serif Italic';fill:#ffffff;fill-opacity:0.829681;stroke:none;stroke-width:4.03702"
     x="362.60535"
     y="851.91858"
     id="text396"
     transform="scale(1.119902,0.89293529)"><tspan
       id="tspan394"
       style="font-style:italic;font-variant:normal;font-weight:normal;font-stretch:normal;font-size:75.3577px;font-family:Z003;-inkscape-font-specification:'Z003 Italic';text-align:center;text-anchor:middle;fill:#ffffff;fill-opacity:0.829681;stroke-width:4.03702"
       x="362.60535"
       y="851.91858">Professional investigation</tspan><tspan
       style="font-style:italic;font-variant:normal;font-weight:normal;font-stretch:normal;font-size:75.3577px;font-family:Z003;-inkscape-font-specification:'Z003 Italic';text-align:center;text-anchor:middle;fill:#ffffff;fill-opacity:0.829681;stroke-width:4.03702"
       x="362.60535"
       y="946.70917"
       id="tspan398">reporting and analysis tools</tspan></text>
  <path
     d="m 365.44088,178.73304 c -1.4,1.3 -2.5,3.3 -2.5,4.3 0,1.7 -4.4,3 -34.9,10.7 l -34.9,8.7 -2.30001,-2.1 c -1.6,-1.5 -3.6,-2.1 -6.69999,-2.1 -5.6,0 -10.2,4.1 -10.2,9.2 -0.10001,3.2 -0.5,3.6 -20.10001,15.3 -11.1,6.6 -20.29999,12.4 -20.6,12.9 -0.4,0.5 -0.19999,0.7 0.30001,0.4 0.5,-0.3 10,-6 21,-12.7 l 20.1,-12.2 0.59999,-4.2 c 0.40001,-2.6 1.40001,-4.8 2.70001,-5.9 3.1,-2.5 9.1,-2.3 12.39999,0.3 l 2.70001,2.1 35.19999,-8.8 c 30.70001,-7.8 35.20001,-9.2 35.5,-10.9 1.1,-6.2 9.70001,-8.8 14,-4.2 3.5,3.8 3,9.2 -1.29999,13.1 l -3.5,3.2 v 14.7 c 0,9.1 -0.4,14.7 -1,14.7 -0.60001,0 -1,-5.6 -1,-14.8 v -14.9 l -4.10001,-3.2 c -2.79999,-2.3 -3.6,-2.7 -2.79999,-1.3 0.69999,1.1 2.29999,2.5 3.6,3.1 2.3,1 2.3,1.3 2.3,16.6 0,14.8 0.1,15.5 2,15.5 1.89999,0 2,-0.7 2,-15.1 v -15 l 3.5,-3.3 c 2.89999,-2.8 3.5,-4 3.5,-7.5 0,-5.7 -3.3,-9.1 -9,-9.1 -3,0 -4.70001,0.6 -6.5,2.5 z"
     id="path2"
     style="fill:#ffffff;fill-opacity:1;stroke:#ffffff;stroke-width:0.1;stroke-opacity:1" />
  <path
     d="m 422.64088,192.03304 -15.7,15.7 15.8,15.8 15.7,15.7 16,-16 16,-16 -15.5,-15.5 c -8.5,-8.5 -15.7,-15.5 -16,-15.5 -0.3,0 -7.60001,7.1 -16.3,15.8 z m 31.8,0.2 15,15 -15.5,15.5 -15.5,15.5 -15.2,-15.2 -15.2,-15.2 15.1,-15.3 c 8.4,-8.4 15.5,-15.3 15.8,-15.3 0.3,0 7.3,6.8 15.5,15 z"
     id="path4"
     style="fill:#ffffff;fill-opacity:1;stroke:#ffffff;stroke-width:0.1;stroke-opacity:1" />
  <path
     d="m 427.14088,196.53304 -11.30001,11.4 11.20001,11.2 11.2,11.3 11.59999,-11.6 11.60001,-11.6 -11,-11 c -6,-6 -11.2,-11 -11.5,-11 -0.3,0 -5.60001,5.1 -11.8,11.3 z m 22.8,0.2 10.5,10.5 -11,11 -11,11 -10.7,-10.7 -10.8,-10.8 10.7,-10.7 c 5.9,-6 11,-10.8 11.3,-10.8 0.3,0 5.2,4.7 11,10.5 z"
     id="path6"
     style="fill:#ffffff;fill-opacity:1;stroke:#ffffff;stroke-width:0.1;stroke-opacity:1" />
  <path
     d="m 346.44088,192.53304 c -6.60001,1.7 -11.5,3.2 -11,3.3 0.6,0.2 6.89999,-1.2 14,-3 7.2,-1.9 12.1,-3.4 11,-3.4 -1.10001,0 -7.4,1.4 -14,3.1 z"
     id="path8"
     style="fill:#ffffff;fill-opacity:1;stroke:#ffffff;stroke-width:0.1;stroke-opacity:1" />
  <path
     d="m 512.44088,197.13304 c -6,2.7 -8,8.4 -5.3,15.7 1.1,3.2 1.1,3.3 -15.1,23.6 -12,14.9 -16.8,20.2 -18.1,20 -3,-0.5 -7.7,2.5 -8.7,5.5 -1.5,4.5 0.2,8.8 4.2,10.7 3.1,1.5 3.8,1.5 7,0.2 5,-2.1 6.5,-6.9 4.1,-12.6 -0.4,-1 4.79999,-8.2 15.4,-21.5 l 16.1,-20 5.5,0.3 c 5.2,0.4 5.7,0.2 8.9,-3.2 l 3.4,-3.6 h 17 17 l 1.6,3 c 0.8,1.6 2.4,3.4 3.5,4 1.8,1 2,2.1 2,14.7 0,11.3 -0.3,14 -1.7,15.5 -0.9,1 -1.1,1.8 -0.5,1.8 2.4,0 3.2,-4.4 3.2,-17.4 0,-13.1 -0.1,-13.5 -2.5,-15.4 -1.3,-1.1 -3,-3.1 -3.6,-4.6 l -1.2,-2.6 h -17.7 -17.7 l -2.6,3 c -3.1,3.4 -6.30001,4.5 -11.2,3.7 -3.3,-0.5 -3.5,-0.4 -19.60001,19.6 -9,11.1 -16.29999,20.8 -16.19999,21.7 0,0.8 0.4,2.9 0.8,4.6 1.5,6.5 -7.5,11.4 -12.5,6.9 -2.7,-2.4 -2.7,-8.6 0,-11 1,-0.9 3.39999,-1.8 5.1,-2 3,-0.2 4.9,-2.3 19.6,-20.6 14,-17.4 16.3,-20.8 15.8,-22.9 -1.8,-6.9 -1.7,-10.5 0.39999,-13.2 6,-7.6 16.50001,-4.7 19.50001,5.4 0.5,1.6 2.2,1.8 18.2,1.8 h 17.6 l 3.5,-3 c 3.9,-3.5 7,-3.8 10.6,-1 2,1.6 2.7,3.1 2.9,6.8 l 0.3,4.7 18.2,9 c 10,4.9 18.2,9.6 18.2,10.2 0.1,0.7 -0.4,1.3 -0.9,1.3 -0.6,0 -9.5,-4.2 -19.9,-9.4 -24.2,-12.2 -23.1,-12.6 -23.1,8.5 0,18.7 0.1,18.6 -13.5,20.2 -2.2,0.3 -1.9,0.4 1.3,0.6 5.2,0.1 10.6,-2 12.1,-4.7 0.7,-1.2 1.1,-8.1 1.1,-16.6 0,-12.6 0.2,-14.6 1.7,-15.5 1.3,-0.7 6.3,1.4 21.4,8.9 19.5,9.8 19.6,9.9 20.7,7.6 1,-2.2 0.4,-2.6 -17.9,-11.5 l -18.9,-9.2 v -4.4 c 0,-5 -2.2,-8 -6.5,-9.1 -3.1,-0.8 -8.2,1.2 -9.6,3.7 -0.9,1.7 -2.4,1.9 -18.9,1.9 -16.9,0 -18,-0.1 -18,-1.9 0,-2.7 -3.9,-7.1 -7.60001,-8.7 -4.09999,-1.7 -4.09999,-1.7 -8.89999,0.5 z"
     id="path10"
     style="fill:#ffffff;fill-opacity:1;stroke:#ffffff;stroke-width:0.1;stroke-opacity:1" />
  <path
     d="m 312.64088,200.93304 c -9.80001,2.5 -17.6,4.7 -17.30001,5 0.5,0.5 38.60001,-8.7 38.60001,-9.3 0,-0.8 -4.10001,0 -21.3,4.3 z"
     id="path12"
     style="fill:#ffffff;fill-opacity:1;stroke:#ffffff;stroke-width:0.1;stroke-opacity:1" />
  <path
     d="m 652.74088,202.73304 c 0.9,7.4 -0.5,10.2 -9.7,19.9 -11.7,12.2 -12.6,14 -12.6,24.6 0,9.8 2.2,15.1 7.9,19.5 3.4,2.6 10.3,5.1 11.3,4.2 0.3,-0.3 -0.6,-2 -1.9,-3.7 -2.6,-3.6 -3.1,-11.3 -0.9,-16.5 l 1.2,-3 1.7,2.7 c 2.7,4.5 7.4,6.1 13.5,4.5 2.6,-0.7 2.7,-0.6 2.7,3 0,2.1 -0.9,5.5 -2,7.6 l -2,3.7 h 2.2 c 3.2,0 8.1,-3.2 11.2,-7.2 7.5,-9.9 7.4,-20 -0.2,-32.8 l -2.7,-4.5 -0.5,4.3 c -0.8,5.6 -4.7,9.7 -8.4,8.8 -3.4,-0.8 -3.3,-2.4 0.5,-9.2 6.2,-10.9 3.5,-20 -8.1,-27.7 -3.4,-2.3 -3.7,-2.2 -3.2,1.8 z"
     id="path14"
     style="fill:#ffffff;fill-opacity:1;stroke:#ffffff;stroke-width:0.1;stroke-opacity:1" />
  <path
     d="m 180.24088,207.73304 c -7.7,2.1 -13,5.1 -18.80001,10.6 -14.19999,13.4 -17.39999,33.2 -8.29999,51.3 2.79999,5.6 11.79999,15.6 13.9,15.6 0.59999,0 -1.40001,-2.3 -4.5,-5.1 -17.3,-15.8 -17.9,-43.8 -1.20001,-60.5 12.90001,-12.8 32.3,-15.8 49.1,-7.5 7.50001,3.7 13.4,9.7 18.00001,18.1 4.2,7.9 4.6,7.2 0.5,-1 -8.8,-17.5 -29.50001,-26.6 -48.7,-21.5 z"
     id="path16"
     style="fill:#ffffff;fill-opacity:1;stroke:#ffffff;stroke-width:0.1;stroke-opacity:1" />
  <path
     d="m 293.04088,209.23304 c -0.4,6.5 -8.4,10.1 -14.1,6.4 l -2.5,-1.6 2.39999,2.1 c 5.5,4.9 16.10001,-0.2 14.80001,-7.1 -0.40001,-2.2 -0.40001,-2.2 -0.6,0.2 z"
     id="path18"
     style="fill:#ffffff;fill-opacity:1;stroke:#ffffff;stroke-width:0.1;stroke-opacity:1" />
  <path
     d="m 177.54088,214.63304 c -15.9,6.7 -24.3,20 -23.4,36.9 0.6,10.2 4.19999,18 11.7,25 7.9,7.4 12.59999,9.2 24.59999,9.2 9.30001,0 10.5,-0.2 16.7,-3.3 7.7,-3.8 13.40001,-9.7 17.50001,-18.1 2.5,-5 2.8,-6.7 2.8,-15.6 -0.10001,-12.3 -1.9,-16.9 -10.10001,-25.5 -7.4,-7.8 -13.09999,-10.2 -24.9,-10.7 -7.8,-0.3 -9.8,0 -14.89999,2.1 z m 29.59999,1.9 c 6.8,3.3 13.1,10 16.6,17.5 2.30001,4.9 2.70001,7 2.70001,14.7 0,7.8 -0.4,9.8 -2.9,15.2 -3.4,7.3 -11.3,15.3 -18.3,18.6 -7.10001,3.2 -22.80001,3.2 -29.5,-0.2 -7.5,-3.7 -13.40001,-9.5 -17,-16.9 -3.1,-6.2 -3.30001,-7.4 -3.30001,-16.7 0,-8.6 0.4,-10.6 2.4,-14.5 7.8,-14.7 19.00001,-21.3 35.20001,-20.7 6.89999,0.2 9.7,0.8 14.09999,3 z"
     id="path20"
     style="fill:#ffffff;fill-opacity:1;stroke:#ffffff;stroke-width:0.1;stroke-opacity:1" />
  <path
     d="m 197.14087,243.53304 c -5.59999,5.6 -10.2,10.7 -10.2,11.2 0,0.5 4.7,-3.7 10.5,-9.5 10,-9.9 10.5,-10.3 12.30001,-8.7 1.8,1.6 1.3,2.2 -11.2,14.7 l -13.10001,13 -7.39999,-7.5 c -7.40001,-7.4 -7.5,-7.4 -5.60001,-9.5 l 1.90001,-2.1 5.29999,5.3 c 2.90001,2.9 5.3,4.8 5.3,4.3 0,-0.9 -10,-10.4 -11.09999,-10.5 -0.3,0 -1.6,1.1 -2.8,2.4 l -2.2,2.4 8.29999,8 8.3,8 8.5,-7.8 c 4.7,-4.3 11,-10.3 13.90001,-13.4 l 5.5,-5.6 -2.40001,-2.5 c -1.3,-1.4 -2.59999,-2.5 -2.89999,-2.5 -0.40001,0 -5.2,4.6 -10.90001,10.3 z"
     id="path22"
     style="fill:#ffffff;fill-opacity:1;stroke:#ffffff;stroke-width:0.1;stroke-opacity:1" />
  <path
     d="m 253.64088,227.03304 -20.90001,12.7 -0.19999,9 c -0.30001,9.7 -2.30001,16.5 -7.1,23.6 -1.4,2.1 -2.5,4.1 -2.5,4.3 0,0.3 3.79999,3.5 8.5,7.1 4.7,3.7 8.5,7.4 8.5,8.2 0,1.2 -0.70001,1 -3.20001,-0.9 -1.79999,-1.3 -6.19999,-4.5 -9.79999,-7 l -6.5,-4.6 -4.5,3.4 c -11.50001,8.7 -28.00001,10.6 -42.50001,4.9 -1.39999,-0.6 -1.69999,-0.5 -1,0.3 0.60001,0.6 3.90001,1.9 7.5,2.8 12,3.1 26.10001,0.4 36.00001,-6.9 l 4.5,-3.3 9.79999,6.9 c 7.80001,5.5 10.1,6.7 10.80001,5.6 0.5,-0.8 0.9,-1.6 0.9,-1.9 0,-0.3 -4,-3.7 -9,-7.5 -4.9,-3.8 -9,-7.3 -9,-7.7 0,-0.4 0.5,-1 1,-1.3 1.89999,-1.2 6.79999,-12 8,-17.8 0.6,-3.2 1,-8.3 0.79999,-11.2 l -0.29999,-5.3 21,-12.7 c 22.29999,-13.5 22.29999,-13.5 20.89999,-13.5 -0.5,0.1 -10.29999,5.8 -21.69999,12.8 z"
     id="path24"
     style="fill:#ffffff;fill-opacity:1;stroke:#ffffff;stroke-width:0.1;stroke-opacity:1" />
  <path
     d="m 332.74087,238.83304 c -15.69999,2.4 -33.69999,9.5 -47.29999,18.7 -8.5,5.7 -20.60001,17.7 -26,25.8 -9.70001,14.5 -14.5,28.5 -15.20001,44.9 l -0.59999,11.5 9.4,-9.1 c 10,-9.6 20.19999,-17.5 31.19999,-24.3 7.80001,-4.8 24.70001,-13.4 25.30001,-12.9 0.19999,0.2 -1.6,2 -4,3.9 -9.1,7.1 -37.1,33.6 -43.30001,40.8 -7.19999,8.4 -15.29999,19.9 -13.19999,18.5 0.79999,-0.4 6.1,-3.9 11.9,-7.7 12.7,-8.3 30.6,-17.3 45.5,-22.7 6,-2.1 11.1,-3.8 11.29999,-3.6 0.1,0.2 -4.09999,3.1 -9.5,6.4 -5.4,3.3 -13.29999,8.5 -17.69999,11.6 -9.1,6.3 -24.9,19.6 -24.30001,20.3 0.90001,0.9 18.5,-5.7 36.6,-13.6 51.80001,-22.9 85.5,-32.3 138.80001,-38.7 l 4.19999,-0.5 -1.5,-5.2 c -8,-27.6 -29.5,-49 -60.39999,-60.2 -15.4,-5.5 -32.5,-6.9 -51.20001,-3.9 z"
     id="path26"
     style="fill:#ffffff;fill-opacity:1;stroke:#ffffff;stroke-width:0.1;stroke-opacity:1" />
  <path
     d="m 527.94088,253.23304 c -3.6,3.6 -4,6.6 -4,27.6 v 20.4 l 2.5,-0.2 2.5,-0.2 v -21 c 0,-18.1 0.2,-21.2 1.7,-22.8 0.9,-1 1.1,-1.8 0.5,-1.8 -2.6,0 -3.2,4.5 -3.2,23.8 0,17.2 -0.2,20.1 -1.6,20.6 -1.3,0.5 -1.5,-1.8 -1.2,-20.8 0.3,-19.7 0.5,-21.6 2.3,-23.6 1.1,-1.2 2.9,-2.6 4,-3.1 1.7,-0.6 1.7,-0.8 0.3,-0.8 -1,-0.1 -2.7,0.8 -3.8,1.9 z"
     id="path28"
     style="fill:#ffffff;fill-opacity:1;stroke:#ffffff;stroke-width:0.1;stroke-opacity:1" />
  <path
     d="m 538.74088,254.93304 c 3.4,0.2 9,0.2 12.5,0 3.4,-0.2 0.6,-0.3 -6.3,-0.3 -6.9,0 -9.7,0.1 -6.2,0.3 z"
     id="path30"
     style="fill:#ffffff;fill-opacity:1;stroke:#ffffff;stroke-width:0.1;stroke-opacity:1" />
  <path
     d="m 92.240882,265.73304 c -5.8,2.5 -8,10.2 -4.5,15.9 l 1.69999,2.9 -10.29999,19.9 c -9.2,17.6 -10.7,19.8 -12.9,19.8 -3.5,0 -6.1,1.6 -7.90001,5.2 -2.2,4.2 -1.1,9 2.60001,12.2 l 3,2.5 v 23.5 c 0,22.8 -0.1,23.5 -2.1,24.1 -2.80001,0.9 -5.90001,6.3 -5.90001,10.4 0,2.7 0.9,4.2 4.00001,7.2 l 4,3.8 v 20 20 l -2.90001,2 c -1.59999,1.2 -3.5,3.7 -4.1,5.5 -2.4,7.4 2.00001,12.8 10.10001,12.5 l 4.8,-0.3 19.9,19.2 c 10.999998,10.6 20.199988,19.2 20.499998,19.2 0.5,0 -8.80001,-9.1 -31.599998,-31 -8.5,-8.1 -8.8,-8.4 -13.2,-8.1 -5.7,0.3 -8.1,-1 -9.40001,-5.2 -1.4,-4.2 -0.4,-7.2 3.80001,-11.1 l 3.1,-3 v -19.9 -20 l -4,-3.7 c -3.00001,-2.8 -4.00001,-4.5 -4.00001,-6.8 0,-4.4 1.7,-7.6 5.10001,-9.6 l 2.9,-1.7 v -23.8 -23.7 l -2.9,-2.2 c -3.70001,-2.7 -4.70001,-6.9 -2.7,-11.6 1.4,-3.4 2.4,-4 8.1,-4.8 1.5,-0.2 4.8,-5.6 12.6,-20.3 l 10.7,-20 -1.90001,-3.1 c -2.69999,-4.5 -2.39999,-8.8 0.90001,-12.5 3.9,-4.4 9.09999,-4.3 13.599988,0 3.20001,3.1 3.5,3.2 10.70001,2.8 l 7.39999,-0.3 -7.6,-0.2 c -5.59999,-0.1 -7.79999,-0.6 -8.19999,-1.6 -1.5,-3.8 -8.800008,-6.1 -13.399998,-4.1 z"
     id="path32"
     style="fill:#ffffff;fill-opacity:1;stroke:#ffffff;stroke-width:0.1;stroke-opacity:1" />
  <path
     d="m 126.24088,271.93304 c 2.59999,0.2 6.8,0.2 9.5,0 2.59999,-0.2 0.4,-0.3 -4.80001,-0.3 -5.19999,0 -7.39999,0.1 -4.69999,0.3 z"
     id="path34"
     style="fill:#ffffff;fill-opacity:1;stroke:#ffffff;stroke-width:0.1;stroke-opacity:1" />
  <path
     d="m 141.94087,273.23304 c 1.10001,2 0.80001,2 -17,2 h -18 l -1.29999,3.2 c -1.80001,4.4 -4.1,6.1 -8.800008,6.7 l -4,0.6 -9.49999,18.2 c -5.2,10.1 -9.3,18.3 -9,18.3 0.6,0 18.59999,-34 18.59999,-35.1 0,-0.5 1.4,-0.9 3,-0.9 4.700008,0 8.700008,-2.5 10.100008,-6.5 l 1.29999,-3.5 h 18.40001 c 16.4,0 18.3,-0.2 17.8,-1.6 -0.3,-0.9 -0.60001,-2 -0.60001,-2.5 0,-0.5 -0.5,-0.9 -1,-0.9 -0.69999,0 -0.69999,0.6 0,2 z"
     id="path36"
     style="fill:#ffffff;fill-opacity:1;stroke:#ffffff;stroke-width:0.1;stroke-opacity:1" />
  <path
     d="m 553.44088,275.63304 c -3,4.5 1.3,9.8 6.6,8.1 5.5,-1.8 3.8,-10.5 -2.1,-10.5 -2,0 -3.5,0.8 -4.5,2.4 z m 8.4,0.4 c 1.5,2.7 0.2,6.1 -2.5,6.8 -3.9,1 -6.8,-2.4 -5.3,-6.4 1.1,-2.8 6.3,-3.1 7.8,-0.4 z"
     id="path38"
     style="fill:#ffffff;fill-opacity:1;stroke:#ffffff;stroke-width:0.1;stroke-opacity:1" />
  <path
     d="m 152.84087,303.43304 c -16.9,20.2 -17.29999,20.8 -16.59999,20.8 0.4,0 27.69999,-32.3 30.5,-36.2 0.69999,-1 1.1,-1.8 0.89999,-1.8 -0.2,0 -6.89999,7.8 -14.8,17.2 z"
     id="path40"
     style="fill:#ffffff;fill-opacity:1;stroke:#ffffff;stroke-width:0.1;stroke-opacity:1" />
  <path
     d="m 154.44087,307.33304 c -8.79999,10.5 -16.1,20 -16.19999,21.2 -0.1,1.8 -0.1,1.9 0.4,0.3 0.5,-1.7 22.4,-28.5 29.6,-36.3 1.69999,-1.8 2.89999,-3.5 2.6,-3.7 -0.20001,-0.3 -7.6,8.1 -16.40001,18.5 z"
     id="path42"
     style="fill:#ffffff;fill-opacity:1;stroke:#ffffff;stroke-width:0.1;stroke-opacity:1" />
  <path
     d="m 695.94088,292.63304 c -9.6,1.1 -18.2,2.6 -19.1,3.1 -4.6,2.9 -12.4,16.8 -16.3,29.2 -9.1,29 -3.4,64.4 13.4,83.6 6.8,7.7 9.2,8.5 29.7,9.8 l 17.9,1.2 5.3,-2.8 c 7.3,-4 12.6,-10.3 17.6,-21 5.1,-10.8 7.2,-18.5 8.6,-32.4 1.9,-18.2 -1.7,-37.8 -9.8,-53.3 -4.7,-9 -9.3,-14.1 -15.5,-17.2 -6.2,-3.1 -8,-3.1 -31.8,-0.2 z m 25.4,11.8 c 2.5,0.8 5.9,3.1 8.7,5.8 20.6,20.5 19.2,74.1 -2.4,91.4 -5,4 -13.4,4.8 -19.3,1.8 -20.5,-10.5 -27.4,-55.5 -12.7,-83.4 5.1,-9.7 13,-16.2 20.2,-16.7 0.7,-0.1 3.2,0.5 5.5,1.1 z"
     id="path44"
     style="fill:#ffffff;fill-opacity:1;stroke:#ffffff;stroke-width:0.1;stroke-opacity:1" />
  <ellipse
     style="display:inline;fill:#d3d3a1;fill-opacity:0.130575;stroke:#ffffff;stroke-width:5.332;stroke-dasharray:none;stroke-dashoffset:53.32;stroke-opacity:1"
     id="path452"
     ry="274.41785"
     rx="407.08289"
     cy="416.45419"
     cx="409.74887" />
  <path
     d="m 710.24088,316.13304 c -6.3,4 -11.2,17.4 -11.7,32.6 -0.2,5.5 -0.2,8 0,5.5 1,-11.6 2.5,-20.2 4.4,-25.4 7.3,-19.5 19.9,-16.7 26.1,5.9 1.9,7 2.1,9.7 1.7,22.5 -0.6,16.6 -2.7,24 -8.4,29.7 -9.1,9.2 -18.6,-0.8 -22.7,-23.7 -0.3,-1.4 -0.3,-0.3 -0.1,2.4 0.6,7.9 4.2,17.3 8.3,21.7 3.2,3.3 4.4,3.9 7.9,3.9 3.4,0 4.7,-0.6 7.6,-3.6 5.7,-5.9 7.8,-13.5 8.3,-30.5 0.6,-16.2 -0.6,-23.2 -5.5,-32.8 -4.4,-8.7 -10.2,-11.7 -15.9,-8.2 z"
     id="path46"
     style="fill:#ffffff;fill-opacity:1;stroke:#ffffff;stroke-width:0.1;stroke-opacity:1" />
  <path
     d="m 652.94088,308.03304 c -1.4,0.2 -26.5,3.2 -55.8,6.6 l -53.3,6.2 -3.5,5.2 c -6.4,9.5 -8.6,16.5 -9.2,28.3 -0.4,9.1 -0.1,11.7 1.9,18.4 2.2,7.4 8.9,19.5 10.7,19.5 1.1,0 6.7,-14.5 8.3,-21.5 1.6,-6.6 4.4,-12.1 7.2,-14 7.8,-5.1 14.8,-4 23.2,3.6 5.9,5.5 9,11.5 10,20 l 0.7,5.6 8.1,0.3 c 4.5,0.1 17.5,0.7 28.9,1.3 18.4,1.1 20.7,1 20.3,-0.3 -3.6,-11.9 -4,-15 -3.9,-33 0.1,-19.8 1.2,-26.3 6.8,-40.2 1.4,-3.4 2.4,-6.2 2.3,-6.3 -0.1,0 -1.3,0.1 -2.7,0.3 z"
     id="path48"
     style="fill:#ffffff;fill-opacity:1;stroke:#ffffff;stroke-width:0.1;stroke-opacity:1" />
  <path
     d="m 429.44088,319.93304 c -29.5,4 -60.5,11.9 -91,23.1 l -8,3 -1.3,7.3 c -1.80001,9.9 -1,32.5 1.3,39.9 2.89999,9.2 13.29999,32.8 16.5,37.5 3.29999,4.9 7.39999,7.5 11.5,7.5 4.1,0 9.5,-3.3 18,-11 4.39999,-4 12.29999,-10.4 17.7,-14.3 7.3,-5.3 9.8,-7.7 9.8,-9.3 0,-1.4 1.5,-3.4 4,-5.4 4,-3.1 4.2,-3.2 5.6,-1.4 0.79999,1.1 2.1,3.3 2.9,5 1.79999,4 5.89999,5.7 19.6,8 12.2,2.1 15.9,1.3 17.9,-3.7 1.1,-2.7 0.89999,-4 -2.60001,-12.9 l -3.89999,-10 h -4.3 c -2.4,0 -5.5,-0.6 -7,-1.4 -3.6,-1.9 -8.5,-7.2 -10.7,-11.6 -2.60001,-5.1 -3.10001,-14.7 -1.10001,-20.8 2,-5.9 8.5,-13 12.80001,-13.9 2.69999,-0.5 2.9,-0.8 2.3,-4.7 -1.60001,-10.1 -2,-11.1 -4.5,-11.2 -1.4,-0.1 -3.8,0 -5.5,0.3 z m -16.9,28.4 c -1.1,11.9 -3.1,17.7 -8,22.6 -4.6,4.6 -7.9,5.8 -12.9,4.9 -6.5,-1.2 -13.90001,-9.9 -16.1,-18.9 -0.6,-2.5 -1,-2.7 -6.20001,-2.7 -5.89999,0 -14.39999,-1.8 -14.39999,-3 0,-0.4 5.29999,-3 11.79999,-5.8 l 11.70001,-5.1 h 17.39999 l 17.4,-0.1 z"
     id="path50"
     style="fill:#ffffff;fill-opacity:1;stroke:#ffffff;stroke-width:0.1;stroke-opacity:1" />
  <path
     d="m 121.94087,322.93304 c -7.6,4 -7.5,15.7 0.20001,19.8 l 3.79999,2 v 22.2 22.2 l -3.39999,1.6 c -3.10001,1.5 -4.60001,3.4 -6,7.7 -0.5,1.6 -2.60001,1.8 -20.600008,2.1 l -19.99999,0.3 20.2,-0.1 h 20.199988 l 2,-3.9 c 1.20001,-2.2 3.5,-4.7 5.1,-5.6 l 3,-1.7 0.30001,-22.6 0.19999,-22.6 -2.69999,-1.5 c -4.7,-2.4 -6.6,-5.2 -6.7,-10.1 -0.10001,-6.2 3.5,-9.9 9.6,-9.9 2.4,0 5.19999,0.4 6.29999,0.8 1.60001,0.7 1.70001,0.6 0.9,-0.3 -2,-2.2 -8.59999,-2.4 -12.4,-0.4 z"
     id="path52"
     style="fill:#ffffff;fill-opacity:1;stroke:#ffffff;stroke-width:0.1;stroke-opacity:1" />
  <path
     d="m 72.340882,324.73304 c -0.3,0.8 0.1,2.4 1,3.7 2.6,3.6 2,8.5 -1.3,11.9 -1.6,1.6 -2.6,2.9 -2.1,2.9 0.4,0 2,-1.4 3.4,-3.1 3,-3.5 3.4,-8.3 1,-11.7 -0.9,-1.3 -1.3,-2.9 -1,-3.7 0.3,-0.8 0.3,-1.5 0,-1.5 -0.2,0 -0.7,0.7 -1,1.5 z"
     id="path54"
     style="fill:#ffffff;fill-opacity:1;stroke:#ffffff;stroke-width:0.1;stroke-opacity:1" />
  <path
     d="m 194.24088,325.23304 c -1.2,0.5 -2.80001,1.8 -3.5,3 -1.2,1.9 -2.30001,2 -26.30001,2.2 l -25,0.3 24.90001,0.2 25,0.3 2.09999,-2.6 c 2.40001,-3 7.2,-3.7 9.90001,-1.4 2.09999,1.6 2,7.4 0,9.4 -2.3,2.4 -6.70001,2 -9.40001,-0.9 l -2.39999,-2.5 -25,0.2 -24.9,0.3 -1.70001,3 c -0.89999,1.6 -3.29999,4.1 -5.29999,5.4 l -3.70001,2.4 0.20001,22.6 0.29999,22.6 0.20001,-22.6 0.29999,-22.5 3.60001,-1.7 c 2.29999,-1.1 4,-3 5,-5.2 l 1.39999,-3.5 h 24.60001 24.7 l 2.3,2.5 c 2.7,2.9 6.8,3.3 10.2,0.9 3.3,-2.3 3.1,-8.6 -0.4,-11.3 -2.90001,-2.3 -3.8,-2.4 -7.1,-1.1 z"
     id="path56"
     style="fill:#ffffff;fill-opacity:1;stroke:#ffffff;stroke-width:0.1;stroke-opacity:1" />
  <path
     d="m 525.44088,328.83304 c -1.8,0.6 -38,4.4 -41.8,4.4 -3.2,0 -4.1,0.6 -6.7,4.2 -8.5,11.8 -7.8,31.4 1.6,41.8 l 3.29999,3.7 22.30001,1 c 12.3,0.6 22.4,1 22.5,0.9 0.1,-0.1 -1,-3.1 -2.5,-6.6 -2.5,-6.1 -2.7,-7.4 -2.7,-21 0.1,-13.3 0.3,-15.1 2.7,-21.5 2.9,-7.3 2.9,-7.4 1.3,-6.9 z"
     id="path58"
     style="fill:#ffffff;fill-opacity:1;stroke:#ffffff;stroke-width:0.1;stroke-opacity:1" />
  <path
     d="m 450.94088,341.73304 c -5.8,0.7 -11.3,1.6 -12.2,2 -4.90001,2 -8.3,14.6 -5.90001,21.7 0.60001,1.9 2.5,4.8 4.20001,6.4 3,2.9 3.2,2.9 15.9,3.2 l 13,0.4 -1.60001,-4.4 c -2.5,-6.9 -2.89999,-16.4 -1,-23.6 0.90001,-3.5 1.60001,-6.6 1.60001,-6.8 0,-0.5 -1.3,-0.4 -14,1.1 z"
     id="path60"
     style="fill:#ffffff;fill-opacity:1;stroke:#ffffff;stroke-width:0.1;stroke-opacity:1" />
  <path
     d="m 67.140882,367.43304 c -0.2,23.5 -0.2,23.7 2,25.2 1.2,0.9 3.1,3.1 4.1,4.9 1.4,2.6 1.7,2.8 1.2,0.7 -0.4,-1.4 -2,-3.7 -3.6,-5.1 l -2.9,-2.5 -0.3,-23.5 -0.2,-23.4 z"
     id="path62"
     style="fill:#ffffff;fill-opacity:1;stroke:#ffffff;stroke-width:0.1;stroke-opacity:1" />
  <path
     d="m 231.94088,353.13304 c -0.8,0.5 -5.3,1.1 -10,1.5 -12.2,0.9 -18.1,4.1 -31.9,17 -6.2,5.8 -13.2,11.7 -15.60001,13.3 -2.5,1.5 -4.5,3.1 -4.5,3.5 0,1.5 13.40001,7 19.40001,8 12.7,2.1 30.6,-4 39.8,-13.4 2.69999,-2.7 5.19999,-5.7 5.8,-6.7 0.79999,-1.6 0.5,-1.8 -4.3,-1.3 -2.90001,0.2 -9,1.5 -13.6,2.9 -4.60001,1.3 -8.60001,2.2 -8.8,1.9 -0.2,-0.2 1.6,-1.3 4,-2.5 2.49999,-1.2 7.59999,-4.8 11.3,-7.9 6.1,-5.1 6.9,-6.2 7.19999,-9.7 0.20001,-2.2 1.1,-4.8 1.90001,-5.8 1.8,-1.9 1.59999,-2.1 -0.7,-0.8 z"
     id="path64"
     style="fill:#ffffff;fill-opacity:1;stroke:#ffffff;stroke-width:0.1;stroke-opacity:1" />
  <path
     d="m 277.34087,364.63304 c -6.39999,2.8 -11.39999,11.9 -11.39999,20.9 0,8.9 6.2,19.6 14.29999,24.6 4.1,2.5 14.30001,5.2 17.1,4.5 2,-0.5 2.10001,-1 1.80001,-8.9 -0.30001,-8.3 -0.40001,-8.5 -2.80001,-8.5 -3.79999,0 -8.29999,-2.7 -10.39999,-6.3 -2.60001,-4.2 -2.70001,-11.8 -0.20001,-14 2.30001,-2.1 8.70001,-2.2 12.5,-0.3 1.5,0.8 2.70001,1.3 2.70001,1 0,-1.4 -3.20001,-6.2 -5.70001,-8.5 -6,-5.7 -11.79999,-7.1 -17.9,-4.5 z"
     id="path66"
     style="fill:#ffffff;fill-opacity:1;stroke:#ffffff;stroke-width:0.1;stroke-opacity:1" />
  <path
     d="m 564.84088,364.43304 c -0.9,0.7 -2.6,5 -3.7,9.6 -1.2,4.6 -4.3,13.6 -6.8,20 -7.6,19.2 -7.2,30.5 1.8,44.3 4.7,7.4 10.9,13.6 18.2,18.5 3.1,2 5.5,3.8 5.3,4 -0.2,0.2 -3.4,-0.1 -7.1,-0.7 -5.3,-0.9 -7,-0.8 -7.6,0.1 -0.5,0.7 -5.4,14.5 -11,30.7 l -10.2,29.4 2.3,2.6 c 3.7,3.9 13.5,10.3 19.9,12.9 13.5,5.5 36.3,9.1 49.1,7.7 l 5.9,-0.6 v -40.5 -40.4 l -2.7,0.7 c -2.3,0.5 -1.7,-0.4 4,-6.4 7.5,-8 12.9,-17.8 15.2,-27.3 2,-8.7 2,-12.8 -0.2,-12.8 -1,0 -9.8,-0.5 -19.6,-1.1 -9.8,-0.7 -18,-1 -18.2,-0.7 -0.2,0.2 0.4,2.8 1.5,5.6 1.2,3.2 2,7.6 2,11.5 v 6.2 l -3.2,-6.3 c -3.8,-7.7 -13.7,-18.6 -20.5,-22.7 l -5,-2.9 2.8,-4.4 c 4.5,-7.1 6,-17.5 3.8,-25.6 -2.2,-7.9 -11.9,-14.8 -16,-11.4 z"
     id="path68"
     style="fill:#ffffff;fill-opacity:1;stroke:#ffffff;stroke-width:0.1;stroke-opacity:1" />
  <path
     d="m 774.54088,389.33304 c -1.7,1.9 -2.6,4.3 -2.6,6.4 0,3.3 4,9.5 6.2,9.5 0.6,0 -0.4,-1.4 -2.2,-3 -2.9,-2.8 -3.2,-3.5 -2.7,-7.3 0.7,-5.2 3.6,-7.7 8.7,-7.7 8.2,0 10.8,10.4 4.1,16 l -3.1,2.5 v 19.8 c 0,15.8 -0.3,20.4 -1.5,22.7 -0.9,1.7 -1.7,3.1 -1.8,3.2 -0.1,0.1 -10.3,0.5 -22.7,0.8 l -22.5,0.5 -1.3,2.8 c -1.7,3.4 -6.9,5.9 -10.9,5.1 -2.5,-0.5 -4.2,0.9 -18.3,15.3 -8.5,8.7 -19.2,19.7 -23.8,24.4 l -8.2,8.7 v 13.6 13.5 l 4.5,4.6 4.6,4.5 h 14.7 c 10.3,0 15.3,-0.4 16.5,-1.3 1.3,-1 1.6,-3.8 1.9,-17.4 0.3,-15 0.5,-16.4 2.4,-18.4 1.3,-1.3 3.5,-2.1 5.8,-2.2 2,-0.1 3.2,-0.5 2.7,-1 -0.5,-0.5 -2.6,-0.4 -5,0.3 -6.3,1.7 -7.1,4.1 -7.1,21.8 0,10.2 -0.4,15.2 -1.2,16 -0.8,0.8 -5.9,1.2 -16.3,1.2 h -15.2 l -1.1,-2.5 c -0.7,-1.4 -2.3,-3 -3.7,-3.7 -2.5,-1.1 -2.5,-1.2 -2.5,-14.9 v -13.8 l 23.1,-23.8 23,-23.8 5,-0.1 c 5.3,-0.1 8.4,-2.1 10,-6.2 0.8,-2.2 1,-2.2 22.3,-2.2 21.3,0 21.5,0 24.3,-2.4 l 2.8,-2.4 0.3,-21.2 0.3,-21.2 3.5,-3.3 c 4.3,-4.1 4.6,-8.9 0.8,-13.4 -2.1,-2.6 -3.3,-3.1 -6.9,-3.1 -3.6,0 -4.8,0.5 -6.9,3.1 z"
     id="path70"
     style="fill:#ffffff;fill-opacity:1;stroke:#ffffff;stroke-width:0.1;stroke-opacity:1" />
  <path
     d="m 243.44088,393.33304 c -2.8,2.3 -8.10001,6.3 -12,8.9 -12.5,8.4 -16.9,12.5 -20.7,19 -4.2,7.1 -7.5,19.7 -8.5,31.9 l -0.60001,8 7.40001,-1.9 c 16.6,-4.3 30.69999,-12.1 38.19999,-21.3 4.80001,-5.9 9.40001,-15.6 10.20001,-21.8 0.7,-5.1 -0.20001,-14.9 -1.3,-14.9 -0.40001,0 -1.5,2 -2.5,4.5 -2.5,6 -12.90001,17 -22.1,23.3 -8,5.6 -10.6,6.8 -5.70001,2.7 7.9,-6.7 18.9,-25.3 21.5,-36.5 0.80001,-3.3 1.30001,-6 1.20001,-6 -0.1,0 -2.4,1.9 -5.1,4.1 z"
     id="path72"
     style="fill:#ffffff;fill-opacity:1;stroke:#ffffff;stroke-width:0.1;stroke-opacity:1" />
  <path
     d="m 133.64088,392.23304 c 8.19999,5 4.4,19 -5.20001,19 -4.69999,0 -7.89999,-1.6 -9.89999,-5.1 l -1.70001,-2.9 h -20.599988 -20.6 l -4.4,4.7 -4.3,4.8 0.2,20.5 0.2,20.5 0.6,-20.6 0.5,-20.5 3.6,-4.2 3.6,-4.2 h 20.6 c 19.899998,0 20.599988,0.1 21.199988,2.1 1.60001,4.9 10.70001,7.4 16.30001,4.5 6.19999,-3.2 7.5,-12.5 2.59999,-17.7 -1.5,-1.6 -3.5,-2.9 -4.29999,-2.9 -0.9,0 -0.20001,0.9 1.6,2 z"
     id="path74"
     style="fill:#ffffff;fill-opacity:1;stroke:#ffffff;stroke-width:0.1;stroke-opacity:1" />
  <path
     d="m 778.94088,426.43304 c 0,17.6 -0.2,19.6 -1.8,21.1 -1.6,1.5 -4.6,1.7 -21.6,1.7 h -19.7 l -3.3,-3.4 c -3.9,-4.2 -7.6,-5.3 -11.7,-3.6 -4.9,2.1 -7.8,10.7 -4.7,13.8 1,1 -2.8,5.3 -17.8,20.5 -10.4,10.5 -20.2,20.8 -21.8,22.7 -1.6,1.9 7.1,-6.6 19.2,-19 15.3,-15.6 22,-23 21.5,-24 -1.6,-3.9 -1.4,-7.6 0.6,-10.2 4,-5.1 11.6,-4.3 15.5,1.6 l 1.6,2.6 h 20.5 c 19.2,0 20.6,-0.1 22.5,-2 1.1,-1.1 2,-2.8 2.1,-3.8 0.3,-6 -0.2,-36.7 -0.6,-37.1 -0.3,-0.2 -0.5,8.3 -0.5,19.1 z"
     id="path76"
     style="fill:#ffffff;fill-opacity:1;stroke:#ffffff;stroke-width:0.1;stroke-opacity:1" />
  <path
     d="m 488.04088,422.83304 c -1.20001,1.5 -2.1,3.4 -2.1,4.4 0,3.1 3.8,6.9 7.39999,7.2 2.90001,0.3 4.5,1.9 16.40001,17.8 7.3,9.6 13.2,18.3 13.2,19.2 0,1 -5.2,7 -11.5,13.3 l -11.4,11.5 h -9.1 c -8.9,0 -9,0 -9,2.5 0,2.5 0,2.5 9.8,2.5 h 9.8 l 12.6,-12.8 c 12.7,-12.8 14.6,-16 12.9,-20.4 -0.5,-1.3 -6.8,-10 -14,-19.3 -11.9,-15.6 -13,-17.3 -12.4,-20.3 0.8,-5 -1.80001,-8.2 -6.7,-8.2 -3,0 -4.3,0.6 -5.9,2.6 z m 10.4,0.1 c 1.2,1.2 1.5,2.6 1.1,5.2 -0.5,3.3 0.29999,4.6 12.7,21 7.2,9.6 13.5,18.4 13.9,19.4 1.6,3.9 -0.7,7.4 -12.5,19.4 l -12.1,12.3 h -9.3 c -7.6,0 -9.3,-0.3 -9.3,-1.5 0,-1.2 1.6,-1.5 8.8,-1.5 h 8.8 l 11.79999,-12 c 9.60001,-9.6 11.80001,-12.4 11.40001,-14.2 -0.2,-1.3 -6.40001,-10.3 -13.8,-20.1 -10.8,-14.3 -13.8,-17.7 -15.7,-17.7 -5.7,0 -8.8,-5.1 -5.8,-9.6 1.89999,-2.9 7.5,-3.3 10,-0.7 z"
     id="path78"
     style="fill:#ffffff;fill-opacity:1;stroke:#ffffff;stroke-width:0.1;stroke-opacity:1" />
  <path
     d="m 277.54088,433.93304 c -0.30001,7 -1.30001,16.8 -2.1,21.8 l -1.4,9 6.6,9.8 c 12.09999,18.1 33.59999,38.5 53.5,50.9 l 9.09999,5.6 3.30001,-13 c 1.79999,-7.2 3.5,-13.3 3.79999,-13.6 0.30001,-0.2 -5,-4.6 -11.69999,-9.5 -16.6,-12.4 -34.2,-30.1 -38.40001,-38.7 -3,-6.1 -8.29999,-24.6 -8.29999,-28.7 0,-1.8 -3.9,-3.6 -12.60001,-6.1 -0.69999,-0.2 -1.29999,4 -1.79999,12.5 z"
     id="path80"
     style="fill:#ffffff;fill-opacity:1;stroke:#ffffff;stroke-width:0.1;stroke-opacity:1" />
  <path
     d="m 435.44088,425.23304 c -1.60001,1 -7.4,3 -12.7,4.4 -11.1,2.9 -15.7,5 -21.7,10 l -4.30001,3.6 h 15.20001 c 21.89999,0 25.3,-1.2 27.8,-10.1 0.9,-3.5 0.5,-10 -0.7,-9.8 -0.3,0 -1.9,0.9 -3.6,1.9 z"
     id="path82"
     style="fill:#ffffff;fill-opacity:1;stroke:#ffffff;stroke-width:0.1;stroke-opacity:1" />
  <path
     d="m 156.14088,427.93304 c -2.5,1 -3.4,5.3 -1.70001,7.9 3.20001,4.9 11.10001,1.7 9.80001,-3.9 -0.90001,-3.8 -4.40001,-5.5 -8.1,-4 z m 6.5,3.2 c 1.6,3.4 0,6.1 -3.70001,6.1 -4.1,0 -5.79999,-3.2 -3.5,-6.6 2,-3.1 5.5,-2.9 7.20001,0.5 z"
     id="path84"
     style="fill:#ffffff;fill-opacity:1;stroke:#ffffff;stroke-width:0.1;stroke-opacity:1" />
  <path
     d="m 101.04088,439.43304 -0.10001,2.8 h 9.30001 9.19999 l 18.70001,19 c 10.29999,10.5 19.69999,19.4 21,19.8 4.9,1.9 8.4,-0.4 19.29999,-12.5 9.40001,-10.6 10.30001,-11.9 8.90001,-13.3 -1.6,-1.6 -2.6,-0.8 -17.6,15.8 -3.10001,3.4 -6.40001,6.2 -7.40001,6.2 -1,0 -10.59999,-8.8 -21.59999,-19.8 l -19.90001,-19.7 -8.69999,-0.1 c -4.80001,-0.1 -6.20001,0.1 -3.20001,0.2 12.20001,0.8 11,0 32.20001,21.1 17.4,17.3 19.9,19.5 22.1,18.9 1.5,-0.3 6.5,-5.1 12.3,-11.6 6.39999,-7.3 10.09999,-10.7 10.7,-10.1 1,1 -3.4,6.5 -15,18.8 -4.60001,5 -6.60001,5.9 -11.30001,5.3 -0.79999,-0.1 -10.29999,-8.9 -21.1,-19.6 l -19.5,-19.4 h -8.59999 c -8.2,0 -8.7,-0.1 -9.1,-2.3 -0.4,-1.9 -0.4,-1.8 -0.6,0.5 z"
     id="path86"
     style="fill:#ffffff;fill-opacity:1;stroke:#ffffff;stroke-width:0.1;stroke-opacity:1" />
  <path
     d="m 665.94088,450.53304 c -4.9,2.5 -6,8.8 -2.3,12.9 0.9,1 2.2,1.8 3,1.8 1.1,0 1.3,6.4 1.3,35.5 v 35.5 l -3.2,2.9 c -2.8,2.5 -3.3,3.6 -3.3,7.6 0,4.1 0.4,5.1 3.3,7.4 l 3.2,2.7 v 13.5 c 0,9.2 -0.4,13.9 -1.2,14.7 -0.8,0.8 -4.8,1.2 -11.4,1.2 -10.1,0 -10.2,0 -10.6,2.5 l -0.5,2.5 h 11.4 c 11.3,0 11.5,0 14.4,-2.9 l 2.9,-2.9 v -14 -13.9 l 3.9,-4.1 3.9,-4.1 16.2,-0.3 16.2,-0.3 2.4,-2.8 c 2.3,-2.7 2.4,-3.4 2.4,-18.6 0,-10.9 0.4,-16.1 1.2,-16.9 0.8,-0.8 5.4,-1.2 13.9,-1.2 12.1,0 12.8,0.1 13.4,2.1 0.4,1.1 2.2,2.7 4.1,3.5 2.9,1.2 3.9,1.2 6.8,0 4,-1.7 5.6,-4.2 5.6,-8.8 -0.1,-5.2 -4,-8.8 -9.5,-8.8 -2.8,0 -8.5,4.8 -8.5,7.2 0.1,0.7 0.7,0.1 1.6,-1.4 4.2,-7.8 15.4,-5.5 15.4,3.1 0,7.9 -9,11.3 -14,5.3 l -2.6,-3.2 h -12.6 c -16.6,0 -15.8,-1 -15.8,19.2 0,21.4 1.2,20.2 -20.9,20.6 -15.7,0.3 -17.1,0.5 -17.6,2.2 -0.3,1.1 -1.8,2.9 -3.3,4.1 -2.7,2 -2.7,2.2 -3.2,17.1 -0.6,19 -0.4,18.8 -15.6,18.8 -8.3,0 -10.4,-0.3 -10.4,-1.4 0,-1.1 1.9,-1.4 9.5,-1.4 13.6,0.1 13.5,0.2 13.5,-17.3 0,-13.5 -0.1,-13.9 -2.4,-15.4 -5.5,-3.6 -5.7,-11.9 -0.5,-15.7 l 2.9,-2.2 v -35.8 -35.8 l -2.5,-1 c -5.2,-2 -5.4,-10.2 -0.4,-12.8 7.7,-4 14.6,6.2 8.4,12.4 -2.5,2.5 -2.5,2.5 -2.3,20.2 l 0.2,17.7 0.3,-17.4 c 0.3,-16.8 0.4,-17.5 2.8,-20.3 3.1,-3.7 3.2,-7.9 0.3,-11.2 -2.8,-3.1 -6.5,-4 -9.8,-2.3 z"
     id="path88"
     style="fill:#ffffff;fill-opacity:1;stroke:#ffffff;stroke-width:0.1;stroke-opacity:1" />
  <path
     d="m 70.940882,456.93304 c 3,2.5 3.2,3 2.8,7.5 l -0.5,4.8 9.6,9.3 c 19.899998,19.2 36.799998,35.2 51.199998,48.6 l 5.7,5.2 -2,3.7 c -3.5,6.7 -0.80001,15 6,18.2 l 3.19999,1.5 v 24.1 c 0,22.8 -0.1,24.2 -2,25.9 -1.5,1.4 -2,3.1 -2,7.2 v 5.3 h 6 6 v -5.3 c 0,-5.1 -1.19999,-7.7 -3.39999,-7.7 -0.60001,0 -0.3,0.5 0.7,1.1 1.19999,0.7 1.69999,2.3 1.69999,5.9 v 5 h -5 -5 v -4.8 c 0,-3.6 0.5,-5.4 2,-6.7 1.9,-1.7 2,-3.1 2,-26.2 0,-15.2 0.4,-24.3 1,-24.3 0.60001,0 1.10001,9.4 1.30001,24.7 l 0.19999,24.8 0.30001,-24.6 0.19999,-24.5 3.30001,-1.6 c 4.3,-2.1 7.09999,-7.7 6.4,-12.9 l -0.5,-3.8 10.7,-6.9 c 13.9,-9.1 27.4,-16.1 43.2,-22.5 l 3.69999,-1.5 -1.5,-4.5 c -1.8,-5.4 -0.79999,-5.6 -20.1,3.8 -14.2,6.9 -24,12.9 -33.99999,20.7 -6.20001,4.8 -6.30001,4.9 -10.20001,3.7 -3.29999,-1 -4.69999,-0.9 -7.79999,0.3 l -3.80001,1.5 -17,-16.1 c -48.399988,-45.6 -49.299988,-46.5 -48.499988,-49.4 1,-3.7 -0.5,-8.8 -3.1,-10.7 -3.7,-2.5 -4.2,-1.7 -0.8,1.2 z"
     id="path90"
     style="fill:#ffffff;fill-opacity:1;stroke:#ffffff;stroke-width:0.1;stroke-opacity:1" />
  <path
     d="m 451.14088,463.93304 c 4.8,9.8 5.19999,11.1 5.6,20.4 0.5,10.4 -1.5,20.7 -5.90001,30.4 l -2.19999,5 -1.4,-5.8 c -2.2,-10 -3.2,-10.2 -3.3,-0.7 0,11.6 -2.9,21.7 -7.9,27.4 -1.6,1.8 -1.5,1.8 2.2,0.2 8.4,-3.5 15.2,-10.8 21.2,-22.6 4.8,-9.5 6.5,-16.2 6.5,-25.6 0,-10 -2.3,-17.1 -7.60001,-23.2 -3.19999,-3.8 -8.19999,-7.6 -7.19999,-5.5 z"
     id="path92"
     style="fill:#ffffff;fill-opacity:1;stroke:#ffffff;stroke-width:0.1;stroke-opacity:1" />
  <path
     d="m 249.14088,470.83304 c -8,6.4 -20.2,19.4 -20.2,21.5 0,0.6 1.1,4.5 2.6,8.7 6.1,18.1 20.9,43.3 36.1,61.2 8.3,9.8 14.09999,15.7 14.59999,14.9 7.80001,-11.5 24.80001,-29.5 31,-32.8 2.30001,-1.2 2.90001,-1 7.80001,2.6 3,2.2 11.5,8.3 19.1,13.6 11.59999,8.2 21.3,15.7 37.09999,28.7 l 3,2.4 7.40001,-7.8 c 7.59999,-8.1 21.19999,-27.5 26.3,-37.7 l 3,-5.9 -3.60001,-1.5 c -2,-0.8 -4,-1.5 -4.29999,-1.5 -0.4,0 -2.9,-1.4 -5.5,-3.1 -3.80001,-2.4 -4.70001,-2.6 -4.1,-1.2 3.5,8.6 2.29999,15.7 -4.60001,27.3 -5,8.4 -13.89999,20.9 -14.89999,21 -0.4,0 -3.20001,-3.2 -6.5,-7 -8.4,-10.2 -22.20001,-21.8 -39.70001,-33.7 -8.4,-5.7 -19.79999,-13.9 -25.4,-18.3 -18,-14.3 -38.29999,-36.9 -46.69999,-52.2 -1.80001,-3.2 -3.40001,-5.8 -3.7,-5.8 -0.3,0 -4.3,3 -8.8,6.6 z"
     id="path94"
     style="fill:#ffffff;fill-opacity:1;stroke:#ffffff;stroke-width:0.1;stroke-opacity:1" />
  <path
     d="m 107.94087,476.23304 v 5 h 5 5 v -5 -5 h -5 -5 z m 9,0 v 4 h -4 -4 v -4 -4 h 4 4 z"
     id="path96"
     style="fill:#ffffff;fill-opacity:1;stroke:#ffffff;stroke-width:0.1;stroke-opacity:1" />
  <path
     d="m 727.44088,505.23304 c -0.3,0.5 -0.1,1 0.4,1 0.6,0 1.1,-0.5 1.1,-1 0,-0.6 -0.2,-1 -0.4,-1 -0.3,0 -0.8,0.4 -1.1,1 z"
     id="path98"
     style="fill:#ffffff;fill-opacity:1;stroke:#ffffff;stroke-width:0.1;stroke-opacity:1" />
  <path
     d="m 733.24088,505.93304 c 2,0.2 5.4,0.2 7.5,0 2,-0.2 0.3,-0.4 -3.8,-0.4 -4.1,0 -5.8,0.2 -3.7,0.4 z"
     id="path100"
     style="fill:#ffffff;fill-opacity:1;stroke:#ffffff;stroke-width:0.1;stroke-opacity:1" />
  <path
     d="m 76.740882,509.33304 c -2.8,1.6 -2.3,6.7 0.6,8 1.6,0.8 3,0.8 4.1,0.1 1.1,-0.5 8.89999,-0.7 19.399988,-0.5 l 17.6,0.5 5.5,5.2 c 3,2.8 7.30001,6.7 9.5,8.6 l 4,3.5 -3,-3.3 c -1.69999,-1.9 -6,-6 -9.6,-9.3 l -6.69999,-5.9 -17.1,-0.5 c -11.399998,-0.3 -17.999998,-0.1 -19.599998,0.7 -4.3,2 -7.6,-3.2 -4,-6.2 1.3,-1.1 2.1,-0.9 4.5,0.9 2.8,2 3.9,2.1 16.2,1.8 l 13.299988,-0.3 -13.499998,-0.2 c -12.19999,-0.2 -13.69999,-0.4 -15.29999,-2.2 -1.9,-2.2 -3.3,-2.4 -5.9,-0.9 z"
     id="path102"
     style="fill:#ffffff;fill-opacity:1;stroke:#ffffff;stroke-width:0.1;stroke-opacity:1" />
  <path
     d="m 536.44088,540.63304 c -1.6,4.4 -5.2,14.5 -8,22.3 l -5.2,14.3 4.6,4.3 c 10.9,10.1 26.9,19.3 41.7,24 16,5.1 30.6,5.6 44.8,1.8 l 6.1,-1.6 0.3,-25.3 0.2,-25.2 h -12.9 c -25,0 -48.9,-7.1 -63.7,-18.8 l -5,-3.9 z"
     id="path104"
     style="fill:#ffffff;fill-opacity:1;stroke:#ffffff;stroke-width:0.1;stroke-opacity:1" />
  <path
     d="m 467.54088,536.33304 c -1.6,2.8 -1.6,2.8 1.1,4.2 5.8,3 43.9,13.5 45,12.4 0.8,-0.9 -18.2,-9.7 -31.30001,-14.5 l -13.09999,-4.9 z"
     id="path106"
     style="fill:#ffffff;fill-opacity:1;stroke:#ffffff;stroke-width:0.1;stroke-opacity:1" />
  <path
     d="m 216.74087,548.43304 c -1.5,0.5 -2.99999,1.8 -3.3,2.9 -0.5,1.5 -1.59999,1.9 -5.5,1.9 -6.3,0 -7.8,0.6 -9.5,4.1 -2.39999,4.6 -1.89999,9.4 1.40001,13.1 2.9,3.2 3.09999,3.3 12.5,3.6 8.99999,0.4 9.7,0.6 11.7,3 1.4,1.8 1.79999,3.4 1.4,5.2 -1.20001,4.5 -2.20001,5 -11.7,5 -7.5,0 -9.30001,-0.3 -11.7,-2.1 -5.8,-4.3 -12.5,1.7 -9,7.9 1.89999,3.6 7,4.2 9.59999,1.3 1.5,-1.8 2.90001,-2.1 9.90001,-2.1 4.4,0 9.5,-0.5 11.29999,-1.1 3.80001,-1.3 6.10001,-5.4 6.10001,-10.6 0,-7.7 -5.4,-11.3 -16.7,-11.3 -8.4,0 -11.30001,-1.6 -11.30001,-6.4 0,-1.7 0.5,-3.7 1.2,-4.4 1.90001,-1.9 8.70001,-1.4 11.5,0.8 1.40001,1.1 3.6,2 4.90001,2 5.29999,0 8.5,-7.8 4.69999,-11.2 -2.59999,-2.2 -4.5,-2.6 -7.5,-1.6 z m 7,2 c 1.70001,1.7 1.5,6.4 -0.4,8.2 -2.1,2.2 -5.6,2 -8.39999,-0.4 -2.9,-2.5 -9.6,-2.7 -12.2,-0.3 -2.4,2.2 -2.4,7.7 0.19999,10.3 1.60001,1.6 3.40001,2 9.30001,2.1 12.49999,0.1 16.7,2.8 16.7,11.1 0,2.5 -0.8,4.6 -2.4,6.5 -2.30001,2.7 -2.9,2.8 -12.40001,3.1 -8.39999,0.3 -10.29999,0.7 -11.79999,2.3 -0.90001,1 -2.70001,1.9 -4,1.9 -5.6,0 -7.20001,-7.2 -2.20001,-9.9 2.5,-1.4 2.90001,-1.4 5.70001,0.7 2.59999,1.9 4.29999,2.2 11.9,2.2 7.2,0 9.2,-0.3 10.4,-1.8 2.59999,-2.9 3,-5.9 1.3,-9.1 -1.8,-3.5 -2.9,-3.9 -14.4,-4.4 -7.7,-0.4 -8.60001,-0.6 -10.8,-3.1 -3,-3.5 -3.10001,-9.3 -0.2,-13 1.7,-2.2 2.8,-2.6 7.39999,-2.6 4.5,0 5.5,-0.4 6.90001,-2.5 1.8,-2.8 7.2,-3.5 9.39999,-1.3 z"
     id="path108"
     style="fill:#ffffff;fill-opacity:1;stroke:#ffffff;stroke-width:0.1;stroke-opacity:1" />
  <path
     d="m 91.940872,557.43304 v 4.8 h 5 4.999998 l -0.19999,-5.3 -0.2,-5.2 -0.3,4.7 -0.40001,4.8 h -3.999998 c -3.79999,0 -3.9,-0.1 -3.9,-3.4 0,-3.3 0.20001,-3.5 3.80001,-3.8 l 3.699988,-0.3 -4.199988,-0.5 -4.30001,-0.6 z"
     id="path110"
     style="fill:#ffffff;fill-opacity:1;stroke:#ffffff;stroke-width:0.1;stroke-opacity:1" />
  <path
     d="m 430.44088,575.83304 c -1.4,1.5 -2.5,3.7 -2.5,5 0,2.6 2,7.4 3,7.4 0.39999,0 -2.8,6.9 -7,15.2 l -7.70001,15.3 -23.19999,0.3 c -22.70001,0.2 -23.30001,0.2 -25,-1.9 -1,-1.2 -3,-2.2 -4.80001,-2.3 -2.59999,-0.1 -5.79999,-2.5 -16.79999,-12.9 -7.5,-7 -14.70001,-13 -16.10001,-13.3 -4.6,-1.2 -7.69999,0.7 -18.6,11.3 -10.69999,10.5 -10.9,10.7 -15.19999,10.4 -3.70001,-0.2 -4.70001,0.2 -6.5,2.5 -2.70001,3.4 -2.70001,6.7 0.19999,9.8 5,5.6 13.70001,2.6 13.70001,-4.7 0,-2.9 1.39999,-4.7 11.39999,-14.6 6.30001,-6.1 11,-11.1 10.60001,-10.9 -0.4,0.2 -5.70001,5.1 -11.9,10.9 -10,9.6 -11.1,11 -11.1,14.1 0,4.7 -2.70001,7 -7.60001,6.6 -3.1,-0.2 -4.19999,-0.9 -5.19999,-3.1 -2.80001,-5.8 1.9,-10.9 8.5,-9.2 2.4,0.6 3.8,-0.5 13.8,-10.5 8.89999,-8.9 11.79999,-11.2 14.6,-11.6 4,-0.7 5.1,0.1 23.69999,17.7 7.70001,7.3 9.80001,8.7 12.40001,8.7 2,-0.1 3.59999,0.6 4.69999,2 1.60001,2.2 2.20001,2.2 24.5,2.2 16.70001,0.1 23.20001,-0.3 24.30001,-1.2 0.8,-0.7 4.8,-7.8 8.8,-15.8 7.2,-14.5 7.2,-14.6 5.39999,-16.9 -2.59999,-3.2 -2.39999,-6.7 0.60001,-9.6 3.3,-3.4 7.7,-3.3 10.39999,0.1 1.20001,1.5 2.10001,3.7 2.10001,4.9 0,2.9 -3.60001,7.5 -6,7.5 -2.4,0 -2.9,0.7 -11,16.5 -4,7.7 -8.10001,14.8 -9.20001,15.7 -1.79999,1.6 -4.5,1.8 -24.69999,1.8 h -22.80001 l -2.29999,2.5 c -4.5,4.8 -10.5,2.4 -10.3,-4.2 0.19999,-3.9 -0.2,-4.3 -13.30001,-16.4 -7.5,-6.8 -14.1,-12.6 -14.69999,-12.8 -0.7,-0.2 -1,-0.2 -0.7,0.1 0.29999,0.3 6.6,6.1 14,12.9 12.79999,11.8 13.5,12.6 13.5,16.2 0,7 7.29999,10.2 11.89999,5.2 l 2.30001,-2.5 h 22.09999 c 14.80001,0 23,-0.4 24.70001,-1.2 1.89999,-0.8 4.6,-5.1 10.5,-16.8 7.2,-14.3 8.2,-15.8 11,-16.3 3.7,-0.8 6.6,-6.1 5.6,-10.1 -1.70001,-6.8 -9.5,-8.9 -14.1,-4 z"
     id="path112"
     style="fill:#ffffff;fill-opacity:1;stroke:#ffffff;stroke-width:0.1;stroke-opacity:1" />
  <path
     d="m 471.94088,577.13304 c -1.4,2.6 -1.3,7.4 0.2,8.9 0.69999,0.7 3.1,1.2 5.4,1.2 4.4,0 5.4,-1 5.4,-5.6 0,-4.6 -1.7,-6.4 -6,-6.4 -2.9,0 -4.2,0.5 -5,1.9 z m 8.89999,0.5 c 0.70001,0.8 1.10001,3 0.90001,4.8 -0.3,3.1 -0.6,3.3 -4.2,3.6 -2.4,0.2 -4.20001,-0.2 -4.70001,-1 -1.29999,-1.9 -1.09999,-6.2 0.30001,-7.6 1.6,-1.6 6.3,-1.5 7.69999,0.2 z"
     id="path114"
     style="fill:#ffffff;fill-opacity:1;stroke:#ffffff;stroke-width:0.1;stroke-opacity:1" />
  <path
     d="m 251.64088,599.03304 c -3.30001,3.6 -0.80001,9.2 4,9.2 2.5,0 5.3,-3 5.3,-5.7 0,-4.6 -6.20001,-6.9 -9.3,-3.5 z m 6.4,0.2 c 3.69999,2 1.79999,8 -2.6,8 -4.3,0 -6.3,-5.8 -2.70001,-7.9 2.20001,-1.3 2.90001,-1.3 5.30001,-0.1 z"
     id="path116"
     style="fill:#ffffff;fill-opacity:1;stroke:#ffffff;stroke-width:0.1;stroke-opacity:1" />
  <path
     d="m 459.94088,601.23304 c -1.10001,1.1 -2,2.9 -2,4 0,2.4 3.39999,6 5.5,6 2.8,0 6.7,-4.8 6,-7.3 -1.5,-4.7 -6.10001,-6.1 -9.5,-2.7 z m 6.2,0.2 c 2.9,2.2 2.69999,6.2 -0.30001,7.8 -1.59999,0.9 -2.59999,0.8 -4.5,-0.5 -2.79999,-1.8 -3.09999,-4.6 -0.79999,-6.9 1.9,-1.9 3.5,-2 5.6,-0.4 z"
     id="path118"
     style="fill:#ffffff;fill-opacity:1;stroke:#ffffff;stroke-width:0.1;stroke-opacity:1" />
  <path
     d="m 491.34087,602.73304 c -1.89999,2.8 -1.09999,6 1.80001,7.6 5.1,2.7 10.5,-2.9 7.3,-7.7 -2.10001,-3.3 -6.9,-3.3 -9.10001,0.1 z m 8.60001,0.6 c 2.1,3.9 -3,8.6 -6.60001,6.1 -1.79999,-1.2 -2.39999,-4.2 -1.39999,-6.3 1.5,-2.7 6.6,-2.6 8,0.2 z"
     id="path120"
     style="display:inline;fill:#ffffff;fill-opacity:1;stroke:#ffffff;stroke-width:0.1;stroke-opacity:1" />
</svg>
