<?xml version="1.0" encoding="UTF-8" standalone="no"?>
<svg
   version="1.0"
   width="256"
   height="256"
   viewBox="0 0 1024 1024"
   preserveAspectRatio="xMidYMid meet"
   id="svg124"
   sodipodi:docname="logo.svg"
   inkscape:version="1.2.2 (b0a8486541, 2022-12-01)"
   xmlns:inkscape="http://www.inkscape.org/namespaces/inkscape"
   xmlns:sodipodi="http://sodipodi.sourceforge.net/DTD/sodipodi-0.dtd"
   xmlns="http://www.w3.org/2000/svg"
   xmlns:svg="http://www.w3.org/2000/svg">
  <defs
     id="defs128" />
  <sodipodi:namedview
     id="namedview126"
     pagecolor="#505050"
     bordercolor="#eeeeee"
     borderopacity="1"
     inkscape:showpageshadow="0"
     inkscape:pageopacity="0"
     inkscape:pagecheckerboard="0"
     inkscape:deskcolor="#505050"
     showgrid="false"
     inkscape:zoom="0.921875"
     inkscape:cx="132.33898"
     inkscape:cy="128.54237"
     inkscape:window-width="1854"
     inkscape:window-height="1011"
     inkscape:window-x="66"
     inkscape:window-y="32"
     inkscape:window-maximized="1"
     inkscape:current-layer="svg124" />
  <g
     transform="matrix(0.1,0,0,-0.1,3.3914195,1054.812)"
     fill="none"
     stroke="#000000"
     stroke-width="48"
     stroke-linecap="round"
     id="g122">
    <path
       d="m 4575,9215 c -14,-13 -25,-33 -25,-43 0,-17 -44,-30 -349,-107 l -349,-87 -23,21 c -16,15 -36,21 -67,21 -56,0 -102,-41 -102,-92 -1,-32 -5,-36 -201,-153 -111,-66 -203,-124 -206,-129 -4,-5 -2,-7 3,-4 5,3 100,60 210,127 l 201,122 6,42 c 4,26 14,48 27,59 31,25 91,23 124,-3 l 27,-21 352,88 c 307,78 352,92 355,109 11,62 97,88 140,42 35,-38 30,-92 -13,-131 l -35,-32 v -147 c 0,-91 -4,-147 -10,-147 -6,0 -10,56 -10,148 v 149 l -41,32 c -28,23 -36,27 -28,13 7,-11 23,-25 36,-31 23,-10 23,-13 23,-166 0,-148 1,-155 20,-155 19,0 20,7 20,151 v 150 l 35,33 c 29,28 35,40 35,75 0,57 -33,91 -90,91 -30,0 -47,-6 -65,-25 z"
       id="path2" />
    <path
       d="m 5147,9082 -157,-157 158,-158 157,-157 160,160 160,160 -155,155 c -85,85 -157,155 -160,155 -3,0 -76,-71 -163,-158 z m 318,-2 150,-150 -155,-155 -155,-155 -152,152 -152,152 151,153 c 84,84 155,153 158,153 3,0 73,-68 155,-150 z"
       id="path4" />
    <path
       d="m 5192,9037 -113,-114 112,-112 112,-113 116,116 116,116 -110,110 c -60,60 -112,110 -115,110 -3,0 -56,-51 -118,-113 z m 228,-2 105,-105 -110,-110 -110,-110 -107,107 -108,108 107,107 c 59,60 110,108 113,108 3,0 52,-47 110,-105 z"
       id="path6" />
    <path
       d="m 4385,9077 c -66,-17 -115,-32 -110,-33 6,-2 69,12 140,30 72,19 121,34 110,34 -11,0 -74,-14 -140,-31 z"
       id="path8" />
    <path
       d="m 6045,9031 c -60,-27 -80,-84 -53,-157 11,-32 11,-33 -151,-236 -120,-149 -168,-202 -181,-200 -30,5 -77,-25 -87,-55 -15,-45 2,-88 42,-107 31,-15 38,-15 70,-2 50,21 65,69 41,126 -4,10 48,82 154,215 l 161,200 55,-3 c 52,-4 57,-2 89,32 l 34,36 h 170 170 l 16,-30 c 8,-16 24,-34 35,-40 18,-10 20,-21 20,-147 0,-113 -3,-140 -17,-155 -9,-10 -11,-18 -5,-18 24,0 32,44 32,174 0,131 -1,135 -25,154 -13,11 -30,31 -36,46 l -12,26 h -177 -177 l -26,-30 c -31,-34 -63,-45 -112,-37 -33,5 -35,4 -196,-196 -90,-111 -163,-208 -162,-217 0,-8 4,-29 8,-46 15,-65 -75,-114 -125,-69 -27,24 -27,86 0,110 10,9 34,18 51,20 30,2 49,23 196,206 140,174 163,208 158,229 -18,69 -17,105 4,132 60,76 165,47 195,-54 5,-16 22,-18 182,-18 h 176 l 35,30 c 39,35 70,38 106,10 20,-16 27,-31 29,-68 l 3,-47 182,-90 c 100,-49 182,-96 182,-102 1,-7 -4,-13 -9,-13 -6,0 -95,42 -199,94 -242,122 -231,126 -231,-85 0,-187 1,-186 -135,-202 -22,-3 -19,-4 13,-6 52,-1 106,20 121,47 7,12 11,81 11,166 0,126 2,146 17,155 13,7 63,-14 214,-89 195,-98 196,-99 207,-76 10,22 4,26 -179,115 l -189,92 v 44 c 0,50 -22,80 -65,91 -31,8 -82,-12 -96,-37 -9,-17 -24,-19 -189,-19 -169,0 -180,1 -180,19 0,27 -39,71 -76,87 -41,17 -41,17 -89,-5 z"
       id="path10" />
    <path
       d="m 4047,8993 c -98,-25 -176,-47 -173,-50 5,-5 386,87 386,93 0,8 -41,0 -213,-43 z"
       id="path12" />
    <path
       d="m 7448,8975 c 9,-74 -5,-102 -97,-199 -117,-122 -126,-140 -126,-246 0,-98 22,-151 79,-195 34,-26 103,-51 113,-42 3,3 -6,20 -19,37 -26,36 -31,113 -9,165 l 12,30 17,-27 c 27,-45 74,-61 135,-45 26,7 27,6 27,-30 0,-21 -9,-55 -20,-76 l -20,-37 h 22 c 32,0 81,32 112,72 75,99 74,200 -2,328 l -27,45 -5,-43 c -8,-56 -47,-97 -84,-88 -34,8 -33,24 5,92 62,109 35,200 -81,277 -34,23 -37,22 -32,-18 z"
       id="path14" />
    <path
       d="m 2723,8925 c -77,-21 -130,-51 -188,-106 -142,-134 -174,-332 -83,-513 28,-56 118,-156 139,-156 6,0 -14,23 -45,51 -173,158 -179,438 -12,605 129,128 323,158 491,75 75,-37 134,-97 180,-181 42,-79 46,-72 5,10 -88,175 -295,266 -487,215 z"
       id="path16" />
    <path
       d="m 3851,8910 c -4,-65 -84,-101 -141,-64 l -25,16 24,-21 c 55,-49 161,2 148,71 -4,22 -4,22 -6,-2 z"
       id="path18" />
    <path
       d="m 2696,8856 c -159,-67 -243,-200 -234,-369 6,-102 42,-180 117,-250 79,-74 126,-92 246,-92 93,0 105,2 167,33 77,38 134,97 175,181 25,50 28,67 28,156 -1,123 -19,169 -101,255 -74,78 -131,102 -249,107 -78,3 -98,0 -149,-21 z m 296,-19 c 68,-33 131,-100 166,-175 23,-49 27,-70 27,-147 0,-78 -4,-98 -29,-152 -34,-73 -113,-153 -183,-186 -71,-32 -228,-32 -295,2 -75,37 -134,95 -170,169 -31,62 -33,74 -33,167 0,86 4,106 24,145 78,147 190,213 352,207 69,-2 97,-8 141,-30 z"
       id="path20" />
    <path
       d="m 2892,8567 c -56,-56 -102,-107 -102,-112 0,-5 47,37 105,95 100,99 105,103 123,87 18,-16 13,-22 -112,-147 l -131,-130 -74,75 c -74,74 -75,74 -56,95 l 19,21 53,-53 c 29,-29 53,-48 53,-43 0,9 -100,104 -111,105 -3,0 -16,-11 -28,-24 l -22,-24 83,-80 83,-80 85,78 c 47,43 110,103 139,134 l 55,56 -24,25 c -13,14 -26,25 -29,25 -4,0 -52,-46 -109,-103 z"
       id="path22" />
    <path
       d="m 3457,8732 -209,-127 -2,-90 c -3,-97 -23,-165 -71,-236 -14,-21 -25,-41 -25,-43 0,-3 38,-35 85,-71 47,-37 85,-74 85,-82 0,-12 -7,-10 -32,9 -18,13 -62,45 -98,70 l -65,46 -45,-34 c -115,-87 -280,-106 -425,-49 -14,6 -17,5 -10,-3 6,-6 39,-19 75,-28 120,-31 261,-4 360,69 l 45,33 98,-69 c 78,-55 101,-67 108,-56 5,8 9,16 9,19 0,3 -40,37 -90,75 -49,38 -90,73 -90,77 0,4 5,10 10,13 19,12 68,120 80,178 6,32 10,83 8,112 l -3,53 210,127 c 223,135 223,135 209,135 -5,-1 -103,-58 -217,-128 z"
       id="path24" />
    <path
       d="m 4248,8614 c -157,-24 -337,-95 -473,-187 -85,-57 -206,-177 -260,-258 -97,-145 -145,-285 -152,-449 l -6,-115 94,91 c 100,96 202,175 312,243 78,48 247,134 253,129 2,-2 -16,-20 -40,-39 -91,-71 -371,-336 -433,-408 -72,-84 -153,-199 -132,-185 8,4 61,39 119,77 127,83 306,173 455,227 60,21 111,38 113,36 1,-2 -41,-31 -95,-64 -54,-33 -133,-85 -177,-116 -91,-63 -249,-196 -243,-203 9,-9 185,57 366,136 518,229 855,323 1388,387 l 42,5 -15,52 c -80,276 -295,490 -604,602 -154,55 -325,69 -512,39 z"
       id="path26" />
    <path
       d="m 6200,8470 c -36,-36 -40,-66 -40,-276 v -204 l 25,2 25,2 v 210 c 0,181 2,212 17,228 9,10 11,18 5,18 -26,0 -32,-45 -32,-238 0,-172 -2,-201 -16,-206 -13,-5 -15,18 -12,208 3,197 5,216 23,236 11,12 29,26 40,31 17,6 17,8 3,8 -10,1 -27,-8 -38,-19 z"
       id="path28" />
    <path
       d="m 6308,8453 c 34,-2 90,-2 125,0 34,2 6,3 -63,3 -69,0 -97,-1 -62,-3 z"
       id="path30" />
    <path
       d="m 1843,8345 c -58,-25 -80,-102 -45,-159 l 17,-29 -103,-199 c -92,-176 -107,-198 -129,-198 -35,0 -61,-16 -79,-52 -22,-42 -11,-90 26,-122 l 30,-25 v -235 c 0,-228 -1,-235 -21,-241 -28,-9 -59,-63 -59,-104 0,-27 9,-42 40,-72 l 40,-38 v -200 -200 l -29,-20 c -16,-12 -35,-37 -41,-55 -24,-74 20,-128 101,-125 l 48,3 199,-192 c 110,-106 202,-192 205,-192 5,0 -88,91 -316,310 -85,81 -88,84 -132,81 -57,-3 -81,10 -94,52 -14,42 -4,72 38,111 l 31,30 v 199 200 l -40,37 c -30,28 -40,45 -40,68 0,44 17,76 51,96 l 29,17 v 238 237 l -29,22 c -37,27 -47,69 -27,116 14,34 24,40 81,48 15,2 48,56 126,203 l 107,200 -19,31 c -27,45 -24,88 9,125 39,44 91,43 136,0 32,-31 35,-32 107,-28 l 74,3 -76,2 c -56,1 -78,6 -82,16 -15,38 -88,61 -134,41 z"
       id="path32" />
    <path
       d="m 2183,8283 c 26,-2 68,-2 95,0 26,2 4,3 -48,3 -52,0 -74,-1 -47,-3 z"
       id="path34" />
    <path
       d="m 2340,8270 c 11,-20 8,-20 -170,-20 h -180 l -13,-32 c -18,-44 -41,-61 -88,-67 l -40,-6 -95,-182 c -52,-101 -93,-183 -90,-183 6,0 186,340 186,351 0,5 14,9 30,9 47,0 87,25 101,65 l 13,35 h 184 c 164,0 183,2 178,16 -3,9 -6,20 -6,25 0,5 -5,9 -10,9 -7,0 -7,-6 0,-20 z"
       id="path36" />
    <path
       d="m 6455,8246 c -30,-45 13,-98 66,-81 55,18 38,105 -21,105 -20,0 -35,-8 -45,-24 z m 84,-4 c 15,-27 2,-61 -25,-68 -39,-10 -68,24 -53,64 11,28 63,31 78,4 z"
       id="path38" />
    <path
       d="m 2449,7968 c -169,-202 -173,-208 -166,-208 4,0 277,323 305,362 7,10 11,18 9,18 -2,0 -69,-78 -148,-172 z"
       id="path40" />
    <path
       d="m 2465,7929 c -88,-105 -161,-200 -162,-212 -1,-18 -1,-19 4,-3 5,17 224,285 296,363 17,18 29,35 26,37 -2,3 -76,-81 -164,-185 z"
       id="path42" />
    <path
       d="m 7880,8076 c -96,-11 -182,-26 -191,-31 -46,-29 -124,-168 -163,-292 -91,-290 -34,-644 134,-836 68,-77 92,-85 297,-98 l 179,-12 53,28 c 73,40 126,103 176,210 51,108 72,185 86,324 19,182 -17,378 -98,533 -47,90 -93,141 -155,172 -62,31 -80,31 -318,2 z m 254,-118 c 25,-8 59,-31 87,-58 206,-205 192,-741 -24,-914 -50,-40 -134,-48 -193,-18 -205,105 -274,555 -127,834 51,97 130,162 202,167 7,1 32,-5 55,-11 z"
       id="path44" />
    <path
       d="m 8023,7841 c -63,-40 -112,-174 -117,-326 -2,-55 -2,-80 0,-55 10,116 25,202 44,254 73,195 199,167 261,-59 19,-70 21,-97 17,-225 -6,-166 -27,-240 -84,-297 -91,-92 -186,8 -227,237 -3,14 -3,3 -1,-24 6,-79 42,-173 83,-217 32,-33 44,-39 79,-39 34,0 47,6 76,36 57,59 78,135 83,305 6,162 -6,232 -55,328 -44,87 -102,117 -159,82 z"
       id="path46" />
    <path
       d="m 7450,7922 c -14,-2 -265,-32 -558,-66 l -533,-62 -35,-52 c -64,-95 -86,-165 -92,-283 -4,-91 -1,-117 19,-184 22,-74 89,-195 107,-195 11,0 67,145 83,215 16,66 44,121 72,140 78,51 148,40 232,-36 59,-55 90,-115 100,-200 l 7,-56 81,-3 c 45,-1 175,-7 289,-13 184,-11 207,-10 203,3 -36,119 -40,150 -39,330 1,198 12,263 68,402 14,34 24,62 23,63 -1,0 -13,-1 -27,-3 z"
       id="path48" />
    <path
       d="m 5215,7803 c -295,-40 -605,-119 -910,-231 l -80,-30 -13,-73 c -18,-99 -10,-325 13,-399 29,-92 133,-328 165,-375 33,-49 74,-75 115,-75 41,0 95,33 180,110 44,40 123,104 177,143 73,53 98,77 98,93 0,14 15,34 40,54 40,31 42,32 56,14 8,-11 21,-33 29,-50 18,-40 59,-57 196,-80 122,-21 159,-13 179,37 11,27 9,40 -26,129 l -39,100 h -43 c -24,0 -55,6 -70,14 -36,19 -85,72 -107,116 -26,51 -31,147 -11,208 20,59 85,130 128,139 27,5 29,8 23,47 -16,101 -20,111 -45,112 -14,1 -38,0 -55,-3 z m -169,-284 c -11,-119 -31,-177 -80,-226 -46,-46 -79,-58 -129,-49 -65,12 -139,99 -161,189 -6,25 -10,27 -62,27 -59,0 -144,18 -144,30 0,4 53,30 118,58 l 117,51 h 174 l 174,1 z"
       id="path50" />
    <path
       d="m 2140,7773 c -76,-40 -75,-157 2,-198 l 38,-20 v -222 -222 l -34,-16 c -31,-15 -46,-34 -60,-77 -5,-16 -26,-18 -206,-21 l -200,-3 202,1 h 202 l 20,39 c 12,22 35,47 51,56 l 30,17 3,226 2,226 -27,15 c -47,24 -66,52 -67,101 -1,62 35,99 96,99 24,0 52,-4 63,-8 16,-7 17,-6 9,3 -20,22 -86,24 -124,4 z"
       id="path52" />
    <path
       d="m 1644,7755 c -3,-8 1,-24 10,-37 26,-36 20,-85 -13,-119 -16,-16 -26,-29 -21,-29 4,0 20,14 34,31 30,35 34,83 10,117 -9,13 -13,29 -10,37 3,8 3,15 0,15 -2,0 -7,-7 -10,-15 z"
       id="path54" />
    <path
       d="m 2863,7750 c -12,-5 -28,-18 -35,-30 -12,-19 -23,-20 -263,-22 l -250,-3 249,-2 250,-3 21,26 c 24,30 72,37 99,14 21,-16 20,-74 0,-94 -23,-24 -67,-20 -94,9 l -24,25 -250,-2 -249,-3 -17,-30 c -9,-16 -33,-41 -53,-54 l -37,-24 2,-226 3,-226 2,226 3,225 36,17 c 23,11 40,30 50,52 l 14,35 h 246 247 l 23,-25 c 27,-29 68,-33 102,-9 33,23 31,86 -4,113 -29,23 -38,24 -71,11 z"
       id="path56" />
    <path
       d="m 6175,7714 c -18,-6 -380,-44 -418,-44 -32,0 -41,-6 -67,-42 -85,-118 -78,-314 16,-418 l 33,-37 223,-10 c 123,-6 224,-10 225,-9 1,1 -10,31 -25,66 -25,61 -27,74 -27,210 1,133 3,151 27,215 29,73 29,74 13,69 z"
       id="path58" />
    <path
       d="m 5430,7585 c -58,-7 -113,-16 -122,-20 -49,-20 -83,-146 -59,-217 6,-19 25,-48 42,-64 30,-29 32,-29 159,-32 l 130,-4 -16,44 c -25,69 -29,164 -10,236 9,35 16,66 16,68 0,5 -13,4 -140,-11 z"
       id="path60" />
    <path
       d="m 1592,7328 c -2,-235 -2,-237 20,-252 12,-9 31,-31 41,-49 14,-26 17,-28 12,-7 -4,14 -20,37 -36,51 l -29,25 -3,235 -2,234 z"
       id="path62" />
    <path
       d="m 3240,7471 c -8,-5 -53,-11 -100,-15 -122,-9 -181,-41 -319,-170 -62,-58 -132,-117 -156,-133 -25,-15 -45,-31 -45,-35 0,-15 134,-70 194,-80 127,-21 306,40 398,134 27,27 52,57 58,67 8,16 5,18 -43,13 -29,-2 -90,-15 -136,-29 -46,-13 -86,-22 -88,-19 -2,2 16,13 40,25 25,12 76,48 113,79 61,51 69,62 72,97 2,22 11,48 19,58 18,19 16,21 -7,8 z"
       id="path64" />
    <path
       d="m 3694,7356 c -64,-28 -114,-119 -114,-209 0,-89 62,-196 143,-246 41,-25 143,-52 171,-45 20,5 21,10 18,89 -3,83 -4,85 -28,85 -38,0 -83,27 -104,63 -26,42 -27,118 -2,140 23,21 87,22 125,3 15,-8 27,-13 27,-10 0,14 -32,62 -57,85 -60,57 -118,71 -179,45 z"
       id="path66" />
    <path
       d="m 6569,7358 c -9,-7 -26,-50 -37,-96 -12,-46 -43,-136 -68,-200 -76,-192 -72,-305 18,-443 47,-74 109,-136 182,-185 31,-20 55,-38 53,-40 -2,-2 -34,1 -71,7 -53,9 -70,8 -76,-1 -5,-7 -54,-145 -110,-307 l -102,-294 23,-26 c 37,-39 135,-103 199,-129 135,-55 363,-91 491,-77 l 59,6 v 405 404 l -27,-7 c -23,-5 -17,4 40,64 75,80 129,178 152,273 20,87 20,128 -2,128 -10,0 -98,5 -196,11 -98,7 -180,10 -182,7 -2,-2 4,-28 15,-56 12,-32 20,-76 20,-115 v -62 l -32,63 c -38,77 -137,186 -205,227 l -50,29 28,44 c 45,71 60,175 38,256 -22,79 -119,148 -160,114 z"
       id="path68" />
    <path
       d="m 8666,7109 c -17,-19 -26,-43 -26,-64 0,-33 40,-95 62,-95 6,0 -4,14 -22,30 -29,28 -32,35 -27,73 7,52 36,77 87,77 82,0 108,-104 41,-160 l -31,-25 v -198 c 0,-158 -3,-204 -15,-227 -9,-17 -17,-31 -18,-32 -1,-1 -103,-5 -227,-8 l -225,-5 -13,-28 c -17,-34 -69,-59 -109,-51 -25,5 -42,-9 -183,-153 -85,-87 -192,-197 -238,-244 l -82,-87 v -136 -135 l 45,-46 46,-45 h 147 c 103,0 153,4 165,13 13,10 16,38 19,174 3,150 5,164 24,184 13,13 35,21 58,22 20,1 32,5 27,10 -5,5 -26,4 -50,-3 -63,-17 -71,-41 -71,-218 0,-102 -4,-152 -12,-160 -8,-8 -59,-12 -163,-12 h -152 l -11,25 c -7,14 -23,30 -37,37 -25,11 -25,12 -25,149 v 138 l 231,238 230,238 50,1 c 53,1 84,21 100,62 8,22 10,22 223,22 213,0 215,0 243,24 l 28,24 3,212 3,212 35,33 c 43,41 46,89 8,134 -21,26 -33,31 -69,31 -36,0 -48,-5 -69,-31 z"
       id="path70" />
    <path
       d="m 3355,7069 c -28,-23 -81,-63 -120,-89 -125,-84 -169,-125 -207,-190 -42,-71 -75,-197 -85,-319 l -6,-80 74,19 c 166,43 307,121 382,213 48,59 94,156 102,218 7,51 -2,149 -13,149 -4,0 -15,-20 -25,-45 -25,-60 -129,-170 -221,-233 -80,-56 -106,-68 -57,-27 79,67 189,253 215,365 8,33 13,60 12,60 -1,0 -24,-19 -51,-41 z"
       id="path72" />
    <path
       d="m 2257,7080 c 82,-50 44,-190 -52,-190 -47,0 -79,16 -99,51 l -17,29 h -206 -206 l -44,-47 -43,-48 2,-205 2,-205 6,206 5,205 36,42 36,42 h 206 c 199,0 206,-1 212,-21 16,-49 107,-74 163,-45 62,32 75,125 26,177 -15,16 -35,29 -43,29 -9,0 -2,-9 16,-20 z"
       id="path74" />
    <path
       d="m 8710,6738 c 0,-176 -2,-196 -18,-211 -16,-15 -46,-17 -216,-17 h -197 l -33,34 c -39,42 -76,53 -117,36 -49,-21 -78,-107 -47,-138 10,-10 -28,-53 -178,-205 -104,-105 -202,-208 -218,-227 -16,-19 71,66 192,190 153,156 220,230 215,240 -16,39 -14,76 6,102 40,51 116,43 155,-16 l 16,-26 h 205 c 192,0 206,1 225,20 11,11 20,28 21,38 3,60 -2,367 -6,371 -3,2 -5,-83 -5,-191 z"
       id="path76" />
    <path
       d="m 5801,6774 c -12,-15 -21,-34 -21,-44 0,-31 38,-69 74,-72 29,-3 45,-19 164,-178 73,-96 132,-183 132,-192 0,-10 -52,-70 -115,-133 l -114,-115 h -91 c -89,0 -90,0 -90,-25 0,-25 0,-25 98,-25 h 98 l 126,128 c 127,128 146,160 129,204 -5,13 -68,100 -140,193 -119,156 -130,173 -124,203 8,50 -18,82 -67,82 -30,0 -43,-6 -59,-26 z m 104,-1 c 12,-12 15,-26 11,-52 -5,-33 3,-46 127,-210 72,-96 135,-184 139,-194 16,-39 -7,-74 -125,-194 l -121,-123 h -93 c -76,0 -93,3 -93,15 0,12 16,15 88,15 h 88 l 118,120 c 96,96 118,124 114,142 -2,13 -64,103 -138,201 -108,143 -138,177 -157,177 -57,0 -88,51 -58,96 19,29 75,33 100,7 z"
       id="path78" />
    <path
       d="m 3696,6663 c -3,-70 -13,-168 -21,-218 l -14,-90 66,-98 c 121,-181 336,-385 535,-509 l 91,-56 33,130 c 18,72 35,133 38,136 3,2 -50,46 -117,95 -166,124 -342,301 -384,387 -30,61 -83,246 -83,287 0,18 -39,36 -126,61 -7,2 -13,-40 -18,-125 z"
       id="path80" />
    <path
       d="m 5275,6750 c -16,-10 -74,-30 -127,-44 -111,-29 -157,-50 -217,-100 l -43,-36 h 152 c 219,0 253,12 278,101 9,35 5,100 -7,98 -3,0 -19,-9 -36,-19 z"
       id="path82" />
    <path
       d="m 2482,6723 c -25,-10 -34,-53 -17,-79 32,-49 111,-17 98,39 -9,38 -44,55 -81,40 z m 65,-32 c 16,-34 0,-61 -37,-61 -41,0 -58,32 -35,66 20,31 55,29 72,-5 z"
       id="path84" />
    <path
       d="m 1931,6608 -1,-28 h 93 92 l 187,-190 c 103,-105 197,-194 210,-198 49,-19 84,4 193,125 94,106 103,119 89,133 -16,16 -26,8 -176,-158 -31,-34 -64,-62 -74,-62 -10,0 -106,88 -216,198 l -199,197 -87,1 c -48,1 -62,-1 -32,-2 122,-8 110,0 322,-211 174,-173 199,-195 221,-189 15,3 65,51 123,116 64,73 101,107 107,101 10,-10 -34,-65 -150,-188 -46,-50 -66,-59 -113,-53 -8,1 -103,89 -211,196 l -195,194 h -86 c -82,0 -87,1 -91,23 -4,19 -4,18 -6,-5 z"
       id="path86" />
    <path
       d="m 7580,6497 c -49,-25 -60,-88 -23,-129 9,-10 22,-18 30,-18 11,0 13,-64 13,-355 v -355 l -32,-29 c -28,-25 -33,-36 -33,-76 0,-41 4,-51 33,-74 l 32,-27 v -135 c 0,-92 -4,-139 -12,-147 -8,-8 -48,-12 -114,-12 -101,0 -102,0 -106,-25 l -5,-25 h 114 c 113,0 115,0 144,29 l 29,29 v 140 139 l 39,41 39,41 162,3 162,3 24,28 c 23,27 24,34 24,186 0,109 4,161 12,169 8,8 54,12 139,12 121,0 128,-1 134,-21 4,-11 22,-27 41,-35 29,-12 39,-12 68,0 40,17 56,42 56,88 -1,52 -40,88 -95,88 -28,0 -85,-48 -85,-72 1,-7 7,-1 16,14 42,78 154,55 154,-31 0,-79 -90,-113 -140,-53 l -26,32 h -126 c -166,0 -158,10 -158,-192 0,-214 12,-202 -209,-206 -157,-3 -171,-5 -176,-22 -3,-11 -18,-29 -33,-41 -27,-20 -27,-22 -32,-171 -6,-190 -4,-188 -156,-188 -83,0 -104,3 -104,14 0,11 19,14 95,14 136,-1 135,-2 135,173 0,135 -1,139 -24,154 -55,36 -57,119 -5,157 l 29,22 v 358 358 l -25,10 c -52,20 -54,102 -4,128 77,40 146,-62 84,-124 -25,-25 -25,-25 -23,-202 l 2,-177 3,174 c 3,168 4,175 28,203 31,37 32,79 3,112 -28,31 -65,40 -98,23 z"
       id="path88" />
    <path
       d="m 1630,6433 c 30,-25 32,-30 28,-75 l -5,-48 96,-93 c 199,-192 368,-352 512,-486 l 57,-52 -20,-37 c -35,-67 -8,-150 60,-182 l 32,-15 v -241 c 0,-228 -1,-242 -20,-259 -15,-14 -20,-31 -20,-72 v -53 h 60 60 v 53 c 0,51 -12,77 -34,77 -6,0 -3,-5 7,-11 12,-7 17,-23 17,-59 v -50 h -50 -50 v 48 c 0,36 5,54 20,67 19,17 20,31 20,262 0,152 4,243 10,243 6,0 11,-94 13,-247 l 2,-248 3,246 2,245 33,16 c 43,21 71,77 64,129 l -5,38 107,69 c 139,91 274,161 432,225 l 37,15 -15,45 c -18,54 -8,56 -201,-38 -142,-69 -240,-129 -340,-207 -62,-48 -63,-49 -102,-37 -33,10 -47,9 -78,-3 l -38,-15 -170,161 c -484,456 -493,465 -485,494 10,37 -5,88 -31,107 -37,25 -42,17 -8,-12 z"
       id="path90" />
    <path
       d="m 5432,6363 c 48,-98 52,-111 56,-204 5,-104 -15,-207 -59,-304 l -22,-50 -14,58 c -22,100 -32,102 -33,7 0,-116 -29,-217 -79,-274 -16,-18 -15,-18 22,-2 84,35 152,108 212,226 48,95 65,162 65,256 0,100 -23,171 -76,232 -32,38 -82,76 -72,55 z"
       id="path92" />
    <path
       d="m 3412,6294 c -80,-64 -202,-194 -202,-215 0,-6 11,-45 26,-87 61,-181 209,-433 361,-612 83,-98 141,-157 146,-149 78,115 248,295 310,328 23,12 29,10 78,-26 30,-22 115,-83 191,-136 116,-82 213,-157 371,-287 l 30,-24 74,78 c 76,81 212,275 263,377 l 30,59 -36,15 c -20,8 -40,15 -43,15 -4,0 -29,14 -55,31 -38,24 -47,26 -41,12 35,-86 23,-157 -46,-273 -50,-84 -139,-209 -149,-210 -4,0 -32,32 -65,70 -84,102 -222,218 -397,337 -84,57 -198,139 -254,183 -180,143 -383,369 -467,522 -18,32 -34,58 -37,58 -3,0 -43,-30 -88,-66 z"
       id="path94" />
    <path
       d="m 2000,6240 v -50 h 50 50 v 50 50 h -50 -50 z m 90,0 v -40 h -40 -40 v 40 40 h 40 40 z"
       id="path96" />
    <path
       d="m 8195,5950 c -3,-5 -1,-10 4,-10 6,0 11,5 11,10 0,6 -2,10 -4,10 -3,0 -8,-4 -11,-10 z"
       id="path98" />
    <path
       d="m 8253,5943 c 20,-2 54,-2 75,0 20,2 3,4 -38,4 -41,0 -58,-2 -37,-4 z"
       id="path100" />
    <path
       d="m 1688,5909 c -28,-16 -23,-67 6,-80 16,-8 30,-8 41,-1 11,5 89,7 194,5 l 176,-5 55,-52 c 30,-28 73,-67 95,-86 l 40,-35 -30,33 c -17,19 -60,60 -96,93 l -67,59 -171,5 c -114,3 -180,1 -196,-7 -43,-20 -76,32 -40,62 13,11 21,9 45,-9 28,-20 39,-21 162,-18 l 133,3 -135,2 c -122,2 -137,4 -153,22 -19,22 -33,24 -59,9 z"
       id="path102" />
    <path
       d="m 6285,5596 c -16,-44 -52,-145 -80,-223 l -52,-143 46,-43 c 109,-101 269,-193 417,-240 160,-51 306,-56 448,-18 l 61,16 3,253 2,252 h -129 c -250,0 -489,71 -637,188 l -50,39 z"
       id="path104" />
    <path
       d="m 5596,5639 c -16,-28 -16,-28 11,-42 58,-30 439,-135 450,-124 8,9 -182,97 -313,145 l -131,49 z"
       id="path106" />
    <path
       d="m 3088,5518 c -15,-5 -30,-18 -33,-29 -5,-15 -16,-19 -55,-19 -63,0 -78,-6 -95,-41 -24,-46 -19,-94 14,-131 29,-32 31,-33 125,-36 90,-4 97,-6 117,-30 14,-18 18,-34 14,-52 -12,-45 -22,-50 -117,-50 -75,0 -93,3 -117,21 -58,43 -125,-17 -90,-79 19,-36 70,-42 96,-13 15,18 29,21 99,21 44,0 95,5 113,11 38,13 61,54 61,106 0,77 -54,113 -167,113 -84,0 -113,16 -113,64 0,17 5,37 12,44 19,19 87,14 115,-8 14,-11 36,-20 49,-20 53,0 85,78 47,112 -26,22 -45,26 -75,16 z m 70,-20 c 17,-17 15,-64 -4,-82 -21,-22 -56,-20 -84,4 -29,25 -96,27 -122,3 -24,-22 -24,-77 2,-103 16,-16 34,-20 93,-21 125,-1 167,-28 167,-111 0,-25 -8,-46 -24,-65 -23,-27 -29,-28 -124,-31 -84,-3 -103,-7 -118,-23 -9,-10 -27,-19 -40,-19 -56,0 -72,72 -22,99 25,14 29,14 57,-7 26,-19 43,-22 119,-22 72,0 92,3 104,18 26,29 30,59 13,91 -18,35 -29,39 -144,44 -77,4 -86,6 -108,31 -30,35 -31,93 -2,130 17,22 28,26 74,26 45,0 55,4 69,25 18,28 72,35 94,13 z"
       id="path108" />
    <path
       d="m 1840,5428 v -48 h 50 50 l -2,53 -2,52 -3,-47 -4,-48 h -40 c -38,0 -39,1 -39,34 0,33 2,35 38,38 l 37,3 -42,5 -43,6 z"
       id="path110" />
    <path
       d="m 5225,5244 c -14,-15 -25,-37 -25,-50 0,-26 20,-74 30,-74 4,0 -28,-69 -70,-152 l -77,-153 -232,-3 c -227,-2 -233,-2 -250,19 -10,12 -30,22 -48,23 -26,1 -58,25 -168,129 -75,70 -147,130 -161,133 -46,12 -77,-7 -186,-113 -107,-105 -109,-107 -152,-104 -37,2 -47,-2 -65,-25 -27,-34 -27,-67 2,-98 50,-56 137,-26 137,47 0,29 14,47 114,146 63,61 110,111 106,109 -4,-2 -57,-51 -119,-109 -100,-96 -111,-110 -111,-141 0,-47 -27,-70 -76,-66 -31,2 -42,9 -52,31 -28,58 19,109 85,92 24,-6 38,5 138,105 89,89 118,112 146,116 40,7 51,-1 237,-177 77,-73 98,-87 124,-87 20,1 36,-6 47,-20 16,-22 22,-22 245,-22 167,-1 232,3 243,12 8,7 48,78 88,158 72,145 72,146 54,169 -26,32 -24,67 6,96 33,34 77,33 104,-1 12,-15 21,-37 21,-49 0,-29 -36,-75 -60,-75 -24,0 -29,-7 -110,-165 -40,-77 -81,-148 -92,-157 -18,-16 -45,-18 -247,-18 h -228 l -23,-25 c -45,-48 -105,-24 -103,42 2,39 -2,43 -133,164 -75,68 -141,126 -147,128 -7,2 -10,2 -7,-1 3,-3 66,-61 140,-129 128,-118 135,-126 135,-162 0,-70 73,-102 119,-52 l 23,25 h 221 c 148,0 230,4 247,12 19,8 46,51 105,168 72,143 82,158 110,163 37,8 66,61 56,101 -17,68 -95,89 -141,40 z"
       id="path112" />
    <path
       d="m 5640,5231 c -14,-26 -13,-74 2,-89 7,-7 31,-12 54,-12 44,0 54,10 54,56 0,46 -17,64 -60,64 -29,0 -42,-5 -50,-19 z m 89,-5 c 7,-8 11,-30 9,-48 -3,-31 -6,-33 -42,-36 -24,-2 -42,2 -47,10 -13,19 -11,62 3,76 16,16 63,15 77,-2 z"
       id="path114" />
    <path
       d="m 3437,5012 c -33,-36 -8,-92 40,-92 25,0 53,30 53,57 0,46 -62,69 -93,35 z m 64,-2 c 37,-20 18,-80 -26,-80 -43,0 -63,58 -27,79 22,13 29,13 53,1 z"
       id="path116" />
    <path
       d="m 5520,4990 c -11,-11 -20,-29 -20,-40 0,-24 34,-60 55,-60 28,0 67,48 60,73 -15,47 -61,61 -95,27 z m 62,-2 c 29,-22 27,-62 -3,-78 -16,-9 -26,-8 -45,5 -28,18 -31,46 -8,69 19,19 35,20 56,4 z"
       id="path118" />
    <path
       d="m 5834,4975 c -19,-28 -11,-60 18,-76 51,-27 105,29 73,77 -21,33 -69,33 -91,-1 z m 86,-6 c 21,-39 -30,-86 -66,-61 -18,12 -24,42 -14,63 15,27 66,26 80,-2 z"
       id="path120" />
  </g>
  <text
     xml:space="preserve"
     style="font-style:normal;font-variant:normal;font-weight:normal;font-stretch:normal;font-size:160px;line-height:1.25;font-family:'DejaVu Sans';-inkscape-font-specification:'DejaVu Sans';fill:#000000;fill-opacity:1;stroke:none;stroke-width:4"
     x="277.97299"
     y="745.49341"
     id="text342"><tspan
       sodipodi:role="line"
       id="tspan340"
       style="font-style:normal;font-variant:normal;font-weight:normal;font-stretch:normal;font-family:Z003;-inkscape-font-specification:Z003;stroke-width:4"
       x="277.97299"
       y="745.49341">PIRAT</tspan></text>
  <text
     xml:space="preserve"
     style="font-style:italic;font-variant:normal;font-weight:normal;font-stretch:normal;font-size:74.6667px;line-height:1.15;font-family:sans-serif;-inkscape-font-specification:'sans-serif Italic';fill:#000000;fill-opacity:1;stroke:none;stroke-width:4"
     x="488.21524"
     y="828.20068"
     id="text396"><tspan
       sodipodi:role="line"
       id="tspan394"
       style="font-style:italic;font-variant:normal;font-weight:normal;font-stretch:normal;font-size:74.6667px;font-family:Z003;-inkscape-font-specification:'Z003 Italic';text-align:center;text-anchor:middle;stroke-width:4"
       x="488.21524"
       y="828.20068">Professional investigation</tspan><tspan
       sodipodi:role="line"
       style="font-style:italic;font-variant:normal;font-weight:normal;font-stretch:normal;font-size:74.6667px;font-family:Z003;-inkscape-font-specification:'Z003 Italic';text-align:center;text-anchor:middle;stroke-width:4"
       x="488.21524"
       y="922.12207"
       id="tspan398">reporting and analysis tools</tspan></text>
  <ellipse
     style="fill:#000000;fill-opacity:0;stroke:#000000;stroke-width:5.332;stroke-dasharray:127.968, 5.332;stroke-dashoffset:53.32"
     id="path452"
     ry="274.41785"
     rx="407.08289"
     cy="371.03317"
     cx="505.19943" />
</svg>
